<svg width="67" height="67" viewBox="0 0 67 67" fill="none" xmlns="http://www.w3.org/2000/svg">
<path d="M49.7196 12.4784C49.4962 12.4784 49.2729 12.4226 49.0775 12.3109C43.7175 9.54717 39.0833 8.37467 33.5279 8.37467C28.0004 8.37467 22.7521 9.68676 17.9783 12.3109C17.3083 12.6738 16.4708 12.4226 16.08 11.7526C15.7171 11.0826 15.9683 10.2172 16.6383 9.85426C21.8308 7.03467 27.5258 5.58301 33.5279 5.58301C39.4741 5.58301 44.6666 6.89509 50.3616 9.82634C51.0596 10.1893 51.3108 11.0268 50.9479 11.6968C50.6966 12.1993 50.2221 12.4784 49.7196 12.4784V12.4784ZM9.7708 27.1347C9.49163 27.1347 9.21247 27.0509 8.96122 26.8834C8.31914 26.4368 8.17955 25.5713 8.62622 24.9293C11.39 21.0209 14.9075 17.9501 19.095 15.8005C27.8608 11.278 39.0833 11.2501 47.8771 15.7726C52.0646 17.9222 55.5821 20.9651 58.3458 24.8455C58.7925 25.4597 58.6529 26.353 58.0108 26.7997C57.3687 27.2463 56.5033 27.1068 56.0566 26.4647C53.5441 22.9472 50.3616 20.1834 46.5929 18.2572C38.5808 14.1534 28.3354 14.1534 20.3512 18.2851C16.5546 20.2393 13.3721 23.0309 10.8596 26.5484C10.6362 26.9393 10.2175 27.1347 9.7708 27.1347V27.1347ZM27.2187 60.8301C26.8558 60.8301 26.4929 60.6905 26.2416 60.4113C23.8129 57.9826 22.5008 56.4193 20.6304 53.0413C18.7041 49.6076 17.6991 45.4201 17.6991 40.9255C17.6991 32.6343 24.79 25.8784 33.5 25.8784C42.21 25.8784 49.3008 32.6343 49.3008 40.9255C49.3008 41.7072 48.6866 42.3213 47.905 42.3213C47.1233 42.3213 46.5091 41.7072 46.5091 40.9255C46.5091 34.1697 40.6746 28.6701 33.5 28.6701C26.3254 28.6701 20.4908 34.1697 20.4908 40.9255C20.4908 44.9455 21.3841 48.6584 23.0871 51.6734C24.8737 54.8838 26.1021 56.2518 28.2516 58.4293C28.7821 58.9876 28.7821 59.853 28.2516 60.4113C27.9446 60.6905 27.5816 60.8301 27.2187 60.8301ZM47.235 55.6655C43.9129 55.6655 40.9816 54.828 38.5808 53.1809C34.4212 50.3613 31.9366 45.783 31.9366 40.9255C31.9366 40.1438 32.5508 39.5297 33.3325 39.5297C34.1141 39.5297 34.7283 40.1438 34.7283 40.9255C34.7283 44.8618 36.7383 48.5747 40.1441 50.8638C42.1262 52.2038 44.4433 52.8459 47.235 52.8459C47.905 52.8459 49.0216 52.7622 50.1383 52.5668C50.892 52.4272 51.6179 52.9297 51.7575 53.7113C51.8971 54.4651 51.3945 55.1909 50.6129 55.3305C49.0216 55.6376 47.6258 55.6655 47.235 55.6655V55.6655ZM41.6237 61.4163C41.5121 61.4163 41.3725 61.3884 41.2608 61.3605C36.8221 60.1322 33.9187 58.4851 30.8758 55.498C26.9675 51.6176 24.8179 46.453 24.8179 40.9255C24.8179 36.403 28.6704 32.718 33.4162 32.718C38.1621 32.718 42.0146 36.403 42.0146 40.9255C42.0146 43.9126 44.6108 46.3413 47.8212 46.3413C51.0316 46.3413 53.6279 43.9126 53.6279 40.9255C53.6279 30.4009 44.555 21.8584 33.3883 21.8584C25.46 21.8584 18.2016 26.2693 14.9354 33.1088C13.8466 35.3701 13.2883 38.0222 13.2883 40.9255C13.2883 43.103 13.4837 46.5368 15.1587 51.0034C15.4379 51.7293 15.075 52.5388 14.3491 52.7901C13.6233 53.0693 12.8137 52.6784 12.5625 51.9805C11.1946 48.3234 10.5246 44.6943 10.5246 40.9255C10.5246 37.5755 11.1666 34.5326 12.4229 31.8805C16.1358 24.0918 24.3712 19.0388 33.3883 19.0388C46.0904 19.0388 56.4195 28.8376 56.4195 40.8976C56.4195 45.4201 52.567 49.1051 47.8212 49.1051C43.0754 49.1051 39.2229 45.4201 39.2229 40.8976C39.2229 37.9105 36.6266 35.4818 33.4162 35.4818C30.2058 35.4818 27.6096 37.9105 27.6096 40.8976C27.6096 45.6713 29.4521 50.138 32.83 53.488C35.4821 56.1122 38.0225 57.5638 41.9587 58.6526C42.7125 58.848 43.1312 59.6297 42.9358 60.3555C42.7962 60.9976 42.21 61.4163 41.6237 61.4163V61.4163Z" fill="#F2F2F2"/>
</svg>
