<svg width="30" height="30" viewBox="0 0 30 30" fill="none" xmlns="http://www.w3.org/2000/svg">
<path d="M22.55 16.9375C22.025 17.45 21.725 18.1875 21.8 18.975C21.9125 20.325 23.15 21.3125 24.5 21.3125H26.875V22.8C26.875 25.3875 24.7625 27.5 22.175 27.5H7.825C5.2375 27.5 3.125 25.3875 3.125 22.8V14.3875C3.125 11.8 5.2375 9.6875 7.825 9.6875H22.175C24.7625 9.6875 26.875 11.8 26.875 14.3875V16.1875H24.35C23.65 16.1875 23.0125 16.4625 22.55 16.9375Z" stroke="white" stroke-width="1.5" stroke-linecap="round" stroke-linejoin="round"/>
<path d="M3.125 15.5126V9.80019C3.125 8.31269 4.0375 6.98764 5.425 6.46264L15.35 2.71264C16.9 2.12514 18.5625 3.27517 18.5625 4.93767V9.68766" stroke="white" stroke-width="1.5" stroke-linecap="round" stroke-linejoin="round"/>
<path d="M28.1985 17.4624V20.0375C28.1985 20.725 27.6485 21.2875 26.9485 21.3125H24.4985C23.1485 21.3125 21.911 20.325 21.7985 18.975C21.7235 18.1875 22.0235 17.45 22.5485 16.9375C23.011 16.4625 23.6485 16.1875 24.3485 16.1875H26.9485C27.6485 16.2125 28.1985 16.7749 28.1985 17.4624Z" stroke="white" stroke-width="1.5" stroke-linecap="round" stroke-linejoin="round"/>
<path d="M8.75 15H17.5" stroke="white" stroke-width="1.5" stroke-linecap="round" stroke-linejoin="round"/>
</svg>
