<svg width="20" height="20" viewBox="0 0 20 20" fill="none" xmlns="http://www.w3.org/2000/svg">
<path d="M16.6419 8.33301H3.30859V14.9997C3.30859 17.4997 4.14193 18.333 6.64193 18.333H13.3086C15.8086 18.333 16.6419 17.4997 16.6419 14.9997V8.33301Z" stroke="#0F0F0F" stroke-miterlimit="10" stroke-linecap="round" stroke-linejoin="round"/>
<path d="M17.9163 5.83366V6.66699C17.9163 7.58366 17.4747 8.33366 16.2497 8.33366H3.74967C2.47467 8.33366 2.08301 7.58366 2.08301 6.66699V5.83366C2.08301 4.91699 2.47467 4.16699 3.74967 4.16699H16.2497C17.4747 4.16699 17.9163 4.91699 17.9163 5.83366Z" stroke="#0F0F0F" stroke-miterlimit="10" stroke-linecap="round" stroke-linejoin="round"/>
<path d="M9.69998 4.16686H5.09998C4.81665 3.85853 4.82498 3.38353 5.12498 3.08353L6.30832 1.9002C6.61665 1.59186 7.12498 1.59186 7.43332 1.9002L9.69998 4.16686Z" stroke="#0F0F0F" stroke-miterlimit="10" stroke-linecap="round" stroke-linejoin="round"/>
<path d="M14.892 4.16686H10.292L12.5587 1.9002C12.867 1.59186 13.3753 1.59186 13.6837 1.9002L14.867 3.08353C15.167 3.38353 15.1753 3.85853 14.892 4.16686Z" stroke="#0F0F0F" stroke-miterlimit="10" stroke-linecap="round" stroke-linejoin="round"/>
<path d="M7.4502 8.33301V12.6163C7.4502 13.283 8.18353 13.6747 8.74186 13.3163L9.5252 12.7997C9.80853 12.6163 10.1669 12.6163 10.4419 12.7997L11.1835 13.2997C11.7335 13.6663 12.4752 13.2747 12.4752 12.608V8.33301H7.4502Z" stroke="#0F0F0F" stroke-miterlimit="10" stroke-linecap="round" stroke-linejoin="round"/>
</svg>
