<svg width="15" height="15" viewBox="0 0 15 15" fill="none" xmlns="http://www.w3.org/2000/svg">
<path d="M12.4814 6.25H2.48145V11.25C2.48145 13.125 3.10645 13.75 4.98145 13.75H9.98145C11.8564 13.75 12.4814 13.125 12.4814 11.25V6.25Z" stroke="white" stroke-miterlimit="10" stroke-linecap="round" stroke-linejoin="round"/>
<path d="M13.4375 4.375V5C13.4375 5.6875 13.1063 6.25 12.1875 6.25H2.8125C1.85625 6.25 1.5625 5.6875 1.5625 5V4.375C1.5625 3.6875 1.85625 3.125 2.8125 3.125H12.1875C13.1063 3.125 13.4375 3.6875 13.4375 4.375Z" stroke="white" stroke-miterlimit="10" stroke-linecap="round" stroke-linejoin="round"/>
<path d="M7.27474 3.12539H3.82474C3.61224 2.89414 3.61849 2.53789 3.84349 2.31289L4.73099 1.42539C4.96224 1.19414 5.34349 1.19414 5.57474 1.42539L7.27474 3.12539Z" stroke="white" stroke-miterlimit="10" stroke-linecap="round" stroke-linejoin="round"/>
<path d="M11.1688 3.12539H7.71875L9.41875 1.42539C9.65 1.19414 10.0312 1.19414 10.2625 1.42539L11.15 2.31289C11.375 2.53789 11.3813 2.89414 11.1688 3.12539Z" stroke="white" stroke-miterlimit="10" stroke-linecap="round" stroke-linejoin="round"/>
<path d="M5.58789 6.25V9.4625C5.58789 9.9625 6.13789 10.2562 6.55664 9.9875L7.14414 9.6C7.35664 9.4625 7.62539 9.4625 7.83164 9.6L8.38789 9.975C8.80039 10.25 9.35664 9.95625 9.35664 9.45625V6.25H5.58789Z" stroke="white" stroke-miterlimit="10" stroke-linecap="round" stroke-linejoin="round"/>
</svg>
