<svg width="230" height="40" viewBox="0 0 230 40" fill="none" xmlns="http://www.w3.org/2000/svg">
<g clip-path="url(#clip0_215_6776)">
<path d="M139.181 11.2983V28.702H135.696V11.2983H139.181Z" fill="white" fill-opacity="0.8"/>
<path d="M53.7882 24.5795H67.5364V28.7016H50.3026V11.7563H53.7882V24.5795Z" fill="white" fill-opacity="0.8"/>
<path d="M176.166 23.3206C176.166 22.625 175.689 22.0611 175.101 22.0611H165.225C162.712 22.0611 160.675 19.6518 160.675 16.6797C160.675 13.7076 162.712 11.2983 165.225 11.2983H179.264V15.4202H165.225C164.637 15.4202 164.16 15.9841 164.16 16.6797C164.16 17.3753 164.637 17.9392 165.225 17.9392H175.101C177.614 17.9392 179.651 20.3485 179.651 23.3206C179.651 26.2926 177.614 28.702 175.101 28.702H161.063V24.58H175.101C175.689 24.58 176.166 24.0162 176.166 23.3206Z" fill="white" fill-opacity="0.8"/>
<path fill-rule="evenodd" clip-rule="evenodd" d="M154.382 11.2983C157.431 11.2983 159.902 14.2203 159.902 17.8247C159.902 21.4291 157.431 24.351 154.382 24.351H143.83V28.702H140.344V11.2983H154.382ZM143.83 20.2291H154.382C155.505 20.2291 156.416 19.1526 156.416 17.8247C156.416 16.4967 155.505 15.4202 154.382 15.4202H143.83V20.2291Z" fill="white" fill-opacity="0.8"/>
<path d="M85.9312 20.0001C85.9312 17.4707 84.1977 15.4202 82.0589 15.4202H74.5071C72.3682 15.4202 70.6344 17.4707 70.6344 20.0001C70.6344 22.5295 72.3682 24.58 74.5071 24.58H82.0589C84.1977 24.58 85.9312 22.5296 85.9312 20.0001ZM89.4167 20.0001C89.4167 24.806 86.1223 28.702 82.0589 28.702H74.5071C70.4433 28.702 67.1489 24.806 67.1489 20.0001C67.1489 15.1943 70.4433 11.2983 74.5071 11.2983H82.0589C86.1223 11.2983 89.4167 15.1943 89.4167 20.0001Z" fill="white" fill-opacity="0.8"/>
<path d="M131.243 20.0001C131.243 17.4707 129.509 15.4202 127.371 15.4202H119.819C117.68 15.4202 115.946 17.4707 115.946 20.0001C115.946 22.5295 117.68 24.58 119.819 24.58H127.371C129.509 24.58 131.243 22.5296 131.243 20.0001ZM134.728 20.0001C134.728 24.806 131.434 28.702 127.371 28.702H119.819C115.755 28.702 112.461 24.806 112.461 20.0001C112.461 15.1943 115.755 11.2983 119.819 11.2983H127.371C131.434 11.2983 134.728 15.1943 134.728 20.0001Z" fill="white" fill-opacity="0.8"/>
<path d="M180.425 21.3741V11.2983H183.91V21.3741C183.91 23.1447 185.124 24.58 186.621 24.58H196.496C197.994 24.58 199.207 23.1447 199.207 21.3741V11.2983H202.693V21.3741C202.693 25.4212 199.919 28.702 196.496 28.702H186.621C183.199 28.702 180.425 25.4212 180.425 21.3741Z" fill="white" fill-opacity="0.8"/>
<path d="M89.9977 20.0001C89.9977 15.1943 93.2913 11.2983 97.3551 11.2983H111.104V15.4202H97.3551C95.2167 15.4202 93.4824 17.4707 93.4824 20.0001C93.4824 22.5295 95.2167 24.58 97.3551 24.58H107.715C108.303 24.58 108.78 24.0162 108.78 23.3206C108.78 22.625 108.303 22.0611 107.715 22.0611H96.3869V17.9392H107.715C110.228 17.9392 112.265 20.3485 112.265 23.3206C112.265 26.2926 110.228 28.702 107.715 28.702H97.3551C93.2913 28.702 89.9977 24.806 89.9977 20.0001Z" fill="white" fill-opacity="0.8"/>
<path d="M222.167 11.2983C223.991 11.2983 225.605 12.6978 226.153 14.7556L229.871 28.702H226.217L222.829 15.9947C222.738 15.6528 222.47 15.4202 222.167 15.4202C221.87 15.4203 221.608 15.6436 221.511 15.971L221.494 16.0379L219.432 25.5557C219.031 27.4071 217.62 28.702 216.004 28.702C214.361 28.7019 212.934 27.364 212.559 25.4719L210.688 16.0336C210.617 15.6744 210.347 15.4203 210.035 15.4202C209.742 15.4203 209.484 15.644 209.395 15.9735L205.964 28.702H202.306L206.073 14.7221C206.623 12.6829 208.225 11.2983 210.035 11.2983C211.965 11.2983 213.642 12.8703 214.083 15.0933L215.952 24.5315C215.958 24.5599 215.979 24.58 216.004 24.58C216.028 24.58 216.05 24.5606 216.055 24.5329L218.118 15.015L218.141 14.9128C218.644 12.7805 220.288 11.2983 222.167 11.2983Z" fill="white" fill-opacity="0.8"/>
<path d="M21.1166 0L25.103 3.92858L21.658 7.32367C21.3444 7.63271 20.8889 7.63271 20.5753 7.32367L17.1304 3.92858L21.1166 0Z" fill="white" fill-opacity="0.8"/>
<path fill-rule="evenodd" clip-rule="evenodd" d="M20.5753 11.3544C20.8889 11.6634 21.3444 11.6634 21.658 11.3544L27.1479 5.94385L30.3058 9.05594L23.282 15.9781C22.0276 17.2142 20.2057 17.2142 18.9513 15.9781L11.9274 9.05594L15.0853 5.94385L20.5753 11.3544Z" fill="white" fill-opacity="0.8"/>
<path d="M21.1166 39.9998L17.1304 36.0712L20.5753 32.6761C20.8889 32.3671 21.3444 32.3671 21.658 32.6761L25.103 36.0712L21.1166 39.9998Z" fill="white" fill-opacity="0.8"/>
<path fill-rule="evenodd" clip-rule="evenodd" d="M21.658 28.6455C21.3444 28.3365 20.8889 28.3365 20.5753 28.6455L15.0853 34.056L11.9274 30.9439L18.9513 24.0218C20.2057 22.7857 22.0276 22.7857 23.282 24.0218L30.3058 30.9439L27.1479 34.056L21.658 28.6455Z" fill="white" fill-opacity="0.8"/>
<path d="M41.4107 19.9999L37.4244 16.0713L34.2176 19.2317C33.8118 19.6315 33.8118 20.3683 34.2176 20.7681L37.4244 23.9285L41.4107 19.9999Z" fill="white" fill-opacity="0.8"/>
<path fill-rule="evenodd" clip-rule="evenodd" d="M30.1276 20.7681C29.7219 20.3683 29.7219 19.6315 30.1276 19.2317L35.3793 14.0559L32.2215 10.9438L26.1504 16.927C24.5277 18.5262 24.5277 21.4736 26.1504 23.0728L32.2215 29.056L35.3793 25.9439L30.1276 20.7681Z" fill="white" fill-opacity="0.8"/>
<path d="M0.822449 19.9999L4.80877 23.9285L8.01559 20.7681C8.42127 20.3683 8.42127 19.6315 8.01559 19.2317L4.80877 16.0713L0.822449 19.9999Z" fill="white" fill-opacity="0.8"/>
<path fill-rule="evenodd" clip-rule="evenodd" d="M12.1056 19.2317C12.5113 19.6315 12.5113 20.3683 12.1057 20.7681L6.85382 25.9439L10.0117 29.056L16.0828 23.0728C17.7054 21.4736 17.7054 18.5262 16.0828 16.927L10.0117 10.9438L6.85382 14.0559L12.1056 19.2317Z" fill="white" fill-opacity="0.8"/>
</g>
<defs>
<clipPath id="clip0_215_6776">
<rect width="230" height="40" fill="white"/>
</clipPath>
</defs>
</svg>
