<svg width="230" height="40" viewBox="0 0 230 40" fill="none" xmlns="http://www.w3.org/2000/svg">
<g clip-path="url(#clip0_215_6763)">
<path d="M222.047 12.9907C224.429 12.9907 226.344 13.6519 227.792 14.9744C229.264 16.276 230 18.1023 230 20.4534V30.6872H225.094V21.0517C225.094 19.6872 224.71 18.6481 223.939 17.9344C223.168 17.1996 222.117 16.8323 220.786 16.8323C219.454 16.8323 218.391 17.1996 217.597 17.9344C216.827 18.6481 216.441 19.6872 216.441 21.0517V30.6872H211.536V21.0517C211.536 19.6872 211.15 18.6481 210.379 17.9344C209.609 17.1996 208.558 16.8323 207.227 16.8323C205.871 16.8323 204.797 17.1996 204.002 17.9344C203.232 18.6481 202.847 19.6872 202.847 21.0517V30.6872H197.941V13.2426H202.847V15.3523C203.477 14.6176 204.283 14.0403 205.264 13.6204C206.269 13.2006 207.367 12.9907 208.558 12.9907C210.076 12.9907 211.43 13.2845 212.622 13.8723C213.813 14.4391 214.736 15.2578 215.39 16.3284C216.02 15.3208 216.931 14.5126 218.122 13.9038C219.337 13.295 220.646 12.9907 222.047 12.9907Z" fill="white" fill-opacity="0.8"/>
<path d="M194.328 13.2422V30.6868H189.388V28.4826C188.757 29.2383 187.928 29.8366 186.9 30.2775C185.896 30.6973 184.798 30.9072 183.607 30.9072C182.089 30.9072 180.746 30.6238 179.578 30.057C178.41 29.4693 177.487 28.6191 176.81 27.5065C176.156 26.3729 175.829 25.0294 175.829 23.4759V13.2422H180.733V22.8462C180.733 24.2317 181.119 25.3023 181.89 26.058C182.661 26.7927 183.712 27.1601 185.043 27.1601C186.398 27.1601 187.461 26.7927 188.231 26.058C189.002 25.3023 189.388 24.2317 189.388 22.8462V13.2422H194.328Z" fill="white" fill-opacity="0.8"/>
<path d="M165.566 30.9704C163.978 30.9704 162.552 30.7185 161.291 30.2147C160.03 29.6899 159.026 28.9866 158.278 28.105C157.553 27.2233 157.157 26.2471 157.087 25.1765H162.027C162.12 25.8483 162.482 26.4046 163.113 26.8454C163.767 27.2863 164.573 27.5067 165.53 27.5067C166.464 27.5067 167.189 27.3387 167.703 27.0029C168.24 26.667 168.509 26.2366 168.509 25.7118C168.509 25.145 168.181 24.7252 167.528 24.4523C166.897 24.1584 165.881 23.8435 164.479 23.5076C163.031 23.1927 161.84 22.8674 160.906 22.5315C159.994 22.1956 159.201 21.6813 158.523 20.9885C157.869 20.2958 157.542 19.3616 157.542 18.1861C157.542 17.2204 157.846 16.3387 158.453 15.541C159.083 14.7433 159.971 14.1135 161.116 13.6517C162.283 13.1899 163.65 12.959 165.216 12.959C167.528 12.959 169.373 13.4838 170.751 14.5334C172.129 15.562 172.888 16.958 173.029 18.7214H168.333C168.263 18.0286 167.937 17.4828 167.352 17.084C166.792 16.6641 166.032 16.4542 165.076 16.4542C164.188 16.4542 163.499 16.6011 163.008 16.895C162.541 17.1889 162.307 17.5983 162.307 18.1231C162.307 18.7109 162.634 19.1622 163.288 19.4771C163.942 19.771 164.958 20.0754 166.337 20.3903C167.738 20.7052 168.894 21.0305 169.806 21.3664C170.716 21.7023 171.499 22.2271 172.152 22.9408C172.83 23.6336 173.18 24.5573 173.203 25.7118C173.203 26.7195 172.888 27.6221 172.258 28.4198C171.65 29.2176 170.762 29.8473 169.594 30.3092C168.45 30.75 167.107 30.9704 165.566 30.9704Z" fill="white" fill-opacity="0.8"/>
<path d="M140.523 15.7614C141.154 14.9637 142.019 14.3025 143.117 13.7777C144.238 13.2319 145.51 12.959 146.936 12.959C148.593 12.959 150.089 13.3263 151.42 14.0611C152.774 14.7958 153.838 15.8454 154.609 17.2099C155.402 18.5534 155.8 20.1174 155.8 21.9017C155.8 23.6861 155.402 25.271 154.609 26.6565C153.838 28.021 152.774 29.0811 151.42 29.8368C150.089 30.5926 148.593 30.9704 146.936 30.9704C145.51 30.9704 144.249 30.708 143.151 30.1832C142.077 29.6584 141.201 28.9971 140.523 28.1994V39H135.619V13.2424H140.523V15.7614ZM150.789 21.9017C150.789 20.8521 150.544 19.9494 150.053 19.1937C149.587 18.417 148.956 17.8292 148.161 17.4303C147.391 17.0315 146.55 16.8321 145.639 16.8321C144.751 16.8321 143.91 17.042 143.117 17.4618C142.346 17.8607 141.714 18.4485 141.224 19.2252C140.757 20.0019 140.523 20.9151 140.523 21.9647C140.523 23.0143 140.757 23.9275 141.224 24.7042C141.714 25.4809 142.346 26.0792 143.117 26.499C143.91 26.8979 144.751 27.0973 145.639 27.0973C146.55 27.0973 147.391 26.8874 148.161 26.4676C148.956 26.0477 149.587 25.4494 150.053 24.6727C150.544 23.896 150.789 22.9723 150.789 21.9017Z" fill="white" fill-opacity="0.8"/>
<path d="M129.581 11.1641C128.717 11.1641 127.992 10.9227 127.409 10.4399C126.848 9.93607 126.568 9.31679 126.568 8.58206C126.568 7.84733 126.848 7.23855 127.409 6.75572C127.992 6.25191 128.717 6 129.581 6C130.446 6 131.158 6.25191 131.718 6.75572C132.302 7.23855 132.594 7.84733 132.594 8.58206C132.594 9.31679 132.302 9.93607 131.718 10.4399C131.158 10.9227 130.446 11.1641 129.581 11.1641ZM131.999 13.2424V30.687H127.093V13.2424H131.999Z" fill="white" fill-opacity="0.8"/>
<path d="M114.596 30.9704C112.728 30.9704 111.045 30.6031 109.551 29.8683C108.056 29.1126 106.876 28.0525 106.012 26.688C105.171 25.3235 104.751 23.749 104.751 21.9647C104.751 20.1803 105.183 18.6059 106.047 17.2414C106.934 15.8769 108.137 14.8273 109.656 14.0926C111.174 13.3368 112.868 12.959 114.736 12.959C116.604 12.959 118.298 13.3368 119.817 14.0926C121.334 14.8273 122.526 15.8769 123.39 17.2414C124.278 18.6059 124.721 20.1803 124.721 21.9647C124.721 23.749 124.266 25.3235 123.356 26.688C122.468 28.0525 121.253 29.1126 119.711 29.8683C118.193 30.6031 116.488 30.9704 114.596 30.9704ZM114.596 27.1288C115.483 27.1288 116.312 26.9399 117.083 26.562C117.878 26.1632 118.508 25.5754 118.976 24.7987C119.442 24.0219 119.677 23.0773 119.677 21.9647C119.677 20.3063 119.186 19.0363 118.204 18.1546C117.247 17.2519 116.068 16.8006 114.666 16.8006C113.264 16.8006 112.084 17.2519 111.127 18.1546C110.193 19.0363 109.726 20.3063 109.726 21.9647C109.726 23.6231 110.181 24.9036 111.092 25.8063C112.027 26.688 113.194 27.1288 114.596 27.1288Z" fill="white" fill-opacity="0.8"/>
<path d="M93.4794 30.9704C91.6108 30.9704 89.929 30.6031 88.4341 29.8683C86.9392 29.1126 85.7597 28.0525 84.8954 26.688C84.0545 25.3235 83.6341 23.749 83.6341 21.9647C83.6341 20.1803 84.0662 18.6059 84.9304 17.2414C85.818 15.8769 87.021 14.8273 88.5392 14.0926C90.0574 13.3368 91.7509 12.959 93.6195 12.959C95.4882 12.959 97.1817 13.3368 98.6999 14.0926C100.218 14.8273 101.409 15.8769 102.274 17.2414C103.161 18.6059 103.605 20.1803 103.605 21.9647C103.605 23.749 103.15 25.3235 102.239 26.688C101.351 28.0525 100.136 29.1126 98.5948 29.8683C97.0765 30.6031 95.3714 30.9704 93.4794 30.9704ZM93.4794 27.1288C94.367 27.1288 95.1962 26.9399 95.967 26.562C96.7612 26.1632 97.3919 25.5754 97.859 24.7987C98.3261 24.0219 98.5598 23.0773 98.5598 21.9647C98.5598 20.3063 98.0692 19.0363 97.0882 18.1546C96.1305 17.2519 94.951 16.8006 93.5494 16.8006C92.148 16.8006 90.9684 17.2519 90.0108 18.1546C89.0764 19.0363 88.6093 20.3063 88.6093 21.9647C88.6093 23.6231 89.0648 24.9036 89.9758 25.8063C90.91 26.688 92.0779 27.1288 93.4794 27.1288Z" fill="white" fill-opacity="0.8"/>
<path d="M72.363 30.9704C70.4943 30.9704 68.8126 30.6031 67.3177 29.8683C65.8228 29.1126 64.6432 28.0525 63.779 26.688C62.9381 25.3235 62.5177 23.749 62.5177 21.9647C62.5177 20.1803 62.9498 18.6059 63.814 17.2414C64.7016 15.8769 65.9046 14.8273 67.4228 14.0926C68.941 13.3368 70.6344 12.959 72.5031 12.959C74.3718 12.959 76.0652 13.3368 77.5835 14.0926C79.1017 14.8273 80.2929 15.8769 81.1572 17.2414C82.0448 18.6059 82.4886 20.1803 82.4886 21.9647C82.4886 23.749 82.0331 25.3235 81.1221 26.688C80.2346 28.0525 79.0199 29.1126 77.4783 29.8683C75.9601 30.6031 74.255 30.9704 72.363 30.9704ZM72.363 27.1288C73.2506 27.1288 74.0798 26.9399 74.8506 26.562C75.6448 26.1632 76.2754 25.5754 76.7426 24.7987C77.2097 24.0219 77.4433 23.0773 77.4433 21.9647C77.4433 20.3063 76.9528 19.0363 75.9718 18.1546C75.0141 17.2519 73.8346 16.8006 72.433 16.8006C71.0316 16.8006 69.852 17.2519 68.8943 18.1546C67.96 19.0363 67.4929 20.3063 67.4929 21.9647C67.4929 23.6231 67.9483 24.9036 68.8593 25.8063C69.7936 26.688 70.9614 27.1288 72.363 27.1288Z" fill="white" fill-opacity="0.8"/>
<path d="M53.794 27.1918H61.8524V30.687H48.8889V8.70801H53.794V27.1918Z" fill="white" fill-opacity="0.8"/>
<path d="M84.9283 33.0301C86.1708 36.3509 89.663 38.7429 93.7768 38.7429H94.2888C99.4433 38.7429 103.622 34.9875 103.622 30.3549V29.8809H98.562V30.3549C98.562 32.4759 96.6488 34.1954 94.2888 34.1954H93.7768C92.574 34.1954 91.4873 33.7488 90.7108 33.0301H84.9283Z" fill="white" fill-opacity="0.8"/>
<path d="M16.6667 0L22.7272 5.33333L0 25.3333V14.6667L16.6667 0Z" fill="white" fill-opacity="0.8"/>
<path d="M3.23141 28.1771L16.6667 40.0001L33.3333 25.3335V14.6668L22.7272 5.3335L0 25.3335L0.004632 25.3376L22.7272 5.3335V20.6668L12.5 29.6668V20.1325L3.23141 28.1771Z" fill="white" fill-opacity="0.8"/>
</g>
<defs>
<clipPath id="clip0_215_6763">
<rect width="230" height="40" fill="white"/>
</clipPath>
</defs>
</svg>
