<svg width="230" height="40" viewBox="0 0 230 40" fill="none" xmlns="http://www.w3.org/2000/svg">
<g clip-path="url(#clip0_215_6729)">
<path d="M28.4356 0C36.904 3.12768e-07 43.7689 8.50659 43.7689 19V40C40.2033 40 37.3128 36.4183 37.3128 32V19C37.3128 12.9249 33.3383 8 28.4356 8H24.2381C22.0978 8.00004 20.0449 9.05339 18.5315 10.9287L7.59181 24.4854C6.98647 25.2354 6.64613 26.2527 6.64608 27.3135V28C6.64608 30.2091 8.09133 32 9.87419 32H24.4005C24.4005 36.2801 21.688 39.7748 18.2769 39.9893L17.9444 40H9.87419C4.52571 40 0.189941 34.6274 0.189941 28V27.3135C0.189991 24.131 1.21023 21.0785 3.02632 18.8281L13.9667 5.27246C16.691 1.89685 20.3855 4.37597e-05 24.2381 0H28.4356Z" fill="white" fill-opacity="0.8"/>
<path d="M30.0496 12C32.2781 12 34.0847 14.2386 34.0847 17V40C30.519 40 27.6285 36.4183 27.6285 32V20H24.93L19.6558 26.5355C18.899 27.4732 17.8727 28 16.8025 28H10.2595C9.92153 28 9.7523 27.4937 9.99126 27.1976L21.0747 13.4648C21.8313 12.5272 22.8575 12 23.9276 12H30.0496Z" fill="white" fill-opacity="0.8"/>
<path d="M221.784 30.0474V17.1591C221.784 16.7877 221.514 16.4534 221.215 16.4534H220.825C220.585 16.4534 220.376 16.6391 220.285 16.8991L216.658 27.5217C216.149 29.0817 214.92 30.0474 213.571 30.0474C212.222 30.0474 211.023 29.0817 210.514 27.5217L206.857 16.8991C206.797 16.6391 206.587 16.4534 206.347 16.4534H205.957C205.658 16.4534 205.388 16.7877 205.388 17.1591V30.0474H202.001V17.1591C202.001 14.4477 203.77 12.2192 205.957 12.2192H206.347C207.936 12.2192 209.374 13.4077 210.004 15.2648L213.571 25.7389L217.138 15.2648C217.767 13.4077 219.206 12.2192 220.825 12.2192H221.215C223.403 12.2192 225.171 14.4477 225.171 17.1591V30.0474H221.784Z" fill="white" fill-opacity="0.8"/>
<path d="M186.542 30.0474C183.095 30.0474 180.307 26.5931 180.307 22.3218V12.2192H183.694V22.3218C183.694 24.2532 184.983 25.8503 186.542 25.8503H193.736C195.294 25.8503 196.583 24.2532 196.583 22.3218V12.2192H199.97V22.3218C199.97 26.5931 197.183 30.0474 193.736 30.0474H186.542Z" fill="white" fill-opacity="0.8"/>
<path d="M174.067 25.8503C174.636 25.8503 175.116 25.256 175.116 24.5503C175.116 23.8446 174.666 23.2875 174.127 23.2504H166.124C163.666 23.2504 161.688 20.799 161.688 17.7533C161.688 14.7077 163.666 12.2192 166.124 12.2192H178.533V16.4534H166.124C165.554 16.4534 165.075 17.0477 165.075 17.7533C165.075 18.459 165.554 19.0533 166.124 19.0533H174.187C176.584 19.1276 178.533 21.5418 178.533 24.5503C178.533 27.596 176.525 30.0474 174.067 30.0474H161.688V25.8503H174.067Z" fill="white" fill-opacity="0.8"/>
<path d="M142.667 30.0474V17.1591C142.667 14.4477 144.436 12.2192 146.624 12.2192H155.346C158.164 12.2192 160.442 15.0791 160.442 18.5705C160.442 22.0618 158.164 24.9218 155.346 24.9218H146.054V30.0474H142.667ZM146.054 17.1591V20.6876H155.346C156.276 20.6876 157.054 19.7219 157.054 18.5705C157.054 17.4191 156.276 16.4534 155.346 16.4534H146.624C146.324 16.4534 146.054 16.7877 146.054 17.1591Z" fill="white" fill-opacity="0.8"/>
<path d="M136.962 12.2192H140.349V30.0474H136.962V12.2192Z" fill="white" fill-opacity="0.8"/>
<path d="M127.989 25.8503C130.087 25.8503 131.796 23.7332 131.796 21.1333C131.796 18.5705 130.087 16.4534 127.989 16.4534H122.714C120.615 16.4534 118.907 18.5705 118.907 21.1333C118.907 23.7332 120.615 25.8503 122.714 25.8503H127.989ZM127.989 12.2192C131.976 12.2192 135.183 16.2305 135.183 21.1333C135.183 26.0732 131.976 30.0474 127.989 30.0474H122.714C118.727 30.0474 115.52 26.0732 115.52 21.1333C115.52 16.2305 118.727 12.2192 122.714 12.2192H127.989Z" fill="white" fill-opacity="0.8"/>
<path d="M102.34 30.0474C98.3537 30.0474 95.1466 26.0732 95.1466 21.1333C95.1466 16.2305 98.3537 12.2192 102.34 12.2192H112.741V16.4534H102.34C100.242 16.4534 98.5337 18.5705 98.5337 21.1333C98.5337 23.7332 100.242 25.8503 102.34 25.8503H109.984C110.553 25.8503 111.033 25.256 111.033 24.5503C111.033 23.8446 110.553 23.2504 109.984 23.2504H101.771V19.0533H109.984C112.442 19.0533 114.45 21.5047 114.45 24.5503C114.45 27.596 112.442 30.0474 109.984 30.0474H102.34Z" fill="white" fill-opacity="0.8"/>
<path d="M86.8327 25.8503C88.931 25.8503 90.6394 23.7332 90.6394 21.1333C90.6394 18.5705 88.931 16.4534 86.8327 16.4534H81.5572C79.4593 16.4534 77.7508 18.5705 77.7508 21.1333C77.7508 23.7332 79.4593 25.8503 81.5572 25.8503H86.8327ZM86.8327 12.2192C90.8194 12.2192 94.0265 16.2305 94.0265 21.1333C94.0265 26.0732 90.8194 30.0474 86.8327 30.0474H81.5572C77.5709 30.0474 74.3636 26.0732 74.3636 21.1333C74.3636 16.2305 77.5709 12.2192 81.5572 12.2192H86.8327Z" fill="white" fill-opacity="0.8"/>
<path d="M60.4931 25.1448C60.4931 25.5162 60.7628 25.8505 61.0626 25.8505H73.7417V30.0475H61.0626C58.8745 30.0475 57.106 27.8562 57.106 25.1448V12.1079H60.4931V25.1448Z" fill="white" fill-opacity="0.8"/>
<path d="M229.296 12.1078C229.296 13.2981 228.517 14.263 227.556 14.263C226.595 14.263 225.817 13.2981 225.817 12.1078C225.817 10.9176 226.595 9.95264 227.556 9.95264C228.517 9.95264 229.296 10.9176 229.296 12.1078Z" fill="white" fill-opacity="0.8"/>
</g>
<defs>
<clipPath id="clip0_215_6729">
<rect width="230" height="40" fill="white"/>
</clipPath>
</defs>
</svg>
