<svg width="61" height="67" viewBox="0 0 61 67" fill="none" xmlns="http://www.w3.org/2000/svg">
<path d="M47 0C54.732 0 61 6.26801 61 14V17" stroke="white" stroke-width="3" stroke-linecap="round"/>
<path d="M14 0C6.26801 0 -8.9407e-08 6.26801 -8.9407e-08 14V17" stroke="white" stroke-width="3" stroke-linecap="round"/>
<path d="M14 67C6.26801 67 -8.9407e-08 60.732 -8.9407e-08 53V50" stroke="white" stroke-width="3" stroke-linecap="round"/>
<path d="M47 67C54.732 67 61 60.732 61 53V50" stroke="white" stroke-width="3" stroke-linecap="round"/>
<path d="M14 21C14 19.8954 14.8954 19 16 19C17.1046 19 18 19.8954 18 21V28C18 29.1046 17.1046 30 16 30C14.8954 30 14 29.1046 14 28V21Z" fill="white"/>
<rect x="43" y="19" width="4" height="11" rx="2" fill="white"/>
<path d="M31.6438 20.5C31.6438 24.6979 31.6438 26.3021 31.6438 30.5C31.6438 31.5347 31.8765 35.2988 31 36C30.3335 36.5332 26.8325 36.5 26 36.5" stroke="white" stroke-width="3" stroke-linecap="round"/>
<path d="M20 47C20.6047 47.6597 21.8012 48.5804 23.3363 49.4522C28.5072 52.3889 35.1351 51.6969 39.8211 48.0358C40.2414 47.7074 40.6381 47.3619 41 47" stroke="white" stroke-width="3" stroke-linecap="round"/>
</svg>
