<svg width="20" height="20" viewBox="0 0 20 20" fill="none" xmlns="http://www.w3.org/2000/svg">
<path d="M16.6417 8.3335H3.30833V15.0002C3.30833 17.5002 4.14167 18.3335 6.64167 18.3335H13.3083C15.8083 18.3335 16.6417 17.5002 16.6417 15.0002V8.3335Z" stroke="url(#paint0_linear_346_6527)" stroke-width="1.5" stroke-miterlimit="10" stroke-linecap="round" stroke-linejoin="round"/>
<path d="M17.9167 5.83317V6.6665C17.9167 7.58317 17.475 8.33317 16.25 8.33317H3.74999C2.47499 8.33317 2.08333 7.58317 2.08333 6.6665V5.83317C2.08333 4.9165 2.47499 4.1665 3.74999 4.1665H16.25C17.475 4.1665 17.9167 4.9165 17.9167 5.83317Z" stroke="url(#paint1_linear_346_6527)" stroke-width="1.5" stroke-miterlimit="10" stroke-linecap="round" stroke-linejoin="round"/>
<path d="M9.7 4.16686H5.1C4.81667 3.85853 4.825 3.38353 5.125 3.08353L6.30833 1.9002C6.61667 1.59186 7.125 1.59186 7.43333 1.9002L9.7 4.16686Z" stroke="url(#paint2_linear_346_6527)" stroke-width="1.5" stroke-miterlimit="10" stroke-linecap="round" stroke-linejoin="round"/>
<path d="M14.8917 4.16686H10.2917L12.5583 1.9002C12.8667 1.59186 13.375 1.59186 13.6833 1.9002L14.8667 3.08353C15.1667 3.38353 15.175 3.85853 14.8917 4.16686Z" stroke="url(#paint3_linear_346_6527)" stroke-width="1.5" stroke-miterlimit="10" stroke-linecap="round" stroke-linejoin="round"/>
<path d="M7.45 8.3335V12.6168C7.45 13.2835 8.18333 13.6752 8.74166 13.3168L9.525 12.8002C9.80833 12.6168 10.1667 12.6168 10.4417 12.8002L11.1833 13.3002C11.7333 13.6668 12.475 13.2752 12.475 12.6085V8.3335H7.45Z" stroke="url(#paint4_linear_346_6527)" stroke-width="1.5" stroke-miterlimit="10" stroke-linecap="round" stroke-linejoin="round"/>
<defs>
<linearGradient id="paint0_linear_346_6527" x1="16.6417" y1="13.3335" x2="3.30833" y2="13.3335" gradientUnits="userSpaceOnUse">
<stop stop-color="#F06F26"/>
<stop offset="1" stop-color="#F1C112"/>
</linearGradient>
<linearGradient id="paint1_linear_346_6527" x1="17.9167" y1="6.24984" x2="2.08333" y2="6.24984" gradientUnits="userSpaceOnUse">
<stop stop-color="#F06F26"/>
<stop offset="1" stop-color="#F1C112"/>
</linearGradient>
<linearGradient id="paint2_linear_346_6527" x1="9.7" y1="2.9179" x2="4.89357" y2="2.9179" gradientUnits="userSpaceOnUse">
<stop stop-color="#F06F26"/>
<stop offset="1" stop-color="#F1C112"/>
</linearGradient>
<linearGradient id="paint3_linear_346_6527" x1="15.0981" y1="2.9179" x2="10.2917" y2="2.9179" gradientUnits="userSpaceOnUse">
<stop stop-color="#F06F26"/>
<stop offset="1" stop-color="#F1C112"/>
</linearGradient>
<linearGradient id="paint4_linear_346_6527" x1="12.475" y1="10.893" x2="7.45" y2="10.893" gradientUnits="userSpaceOnUse">
<stop stop-color="#F06F26"/>
<stop offset="1" stop-color="#F1C112"/>
</linearGradient>
</defs>
</svg>
