<svg width="20" height="20" viewBox="0 0 20 20" fill="none" xmlns="http://www.w3.org/2000/svg">
<path d="M16.25 10.4168C16.25 9.26683 17.1834 8.3335 18.3334 8.3335V7.50016C18.3334 4.16683 17.5 3.3335 14.1667 3.3335H5.83335C2.50002 3.3335 1.66669 4.16683 1.66669 7.50016V7.91683C2.81669 7.91683 3.75002 8.85016 3.75002 10.0002C3.75002 11.1502 2.81669 12.0835 1.66669 12.0835V12.5002C1.66669 15.8335 2.50002 16.6668 5.83335 16.6668H14.1667C17.5 16.6668 18.3334 15.8335 18.3334 12.5002C17.1834 12.5002 16.25 11.5668 16.25 10.4168Z" stroke="url(#paint0_linear_346_6553)" stroke-width="1.5" stroke-linecap="round" stroke-linejoin="round"/>
<path d="M8.33331 3.3335L8.33331 16.6668" stroke="url(#paint1_linear_346_6553)" stroke-width="1.5" stroke-linecap="round" stroke-linejoin="round" stroke-dasharray="5 5"/>
<defs>
<linearGradient id="paint0_linear_346_6553" x1="18.3334" y1="10.0002" x2="1.66669" y2="10.0002" gradientUnits="userSpaceOnUse">
<stop stop-color="#F06F26"/>
<stop offset="1" stop-color="#F1C112"/>
</linearGradient>
<linearGradient id="paint1_linear_346_6553" x1="9.33331" y1="10.0002" x2="8.33331" y2="10.0002" gradientUnits="userSpaceOnUse">
<stop stop-color="#F06F26"/>
<stop offset="1" stop-color="#F1C112"/>
</linearGradient>
</defs>
</svg>
