<svg width="18" height="18" viewBox="0 0 18 18" fill="none" xmlns="http://www.w3.org/2000/svg">
<g clip-path="url(#clip0_348_8815)">
<path d="M14.625 6.74999H14.25V5.24999C14.25 5.05108 14.171 4.86031 14.0303 4.71966C13.8897 4.57901 13.6989 4.49999 13.5 4.49999C13.5095 3.968 13.3738 3.44349 13.1074 2.98292C12.8409 2.52236 12.4539 2.14319 11.988 1.88624C11.4493 1.58641 10.8328 1.45573 10.2188 1.51124C10.1425 1.52069 10.0652 1.51026 9.99422 1.48095C9.92325 1.45164 9.86108 1.40446 9.81375 1.34399C9.48731 0.916345 9.06356 0.572756 8.57768 0.341756C8.0918 0.110756 7.55782 -0.000986405 7.02008 0.0158086C6.48235 0.0326036 5.95638 0.177452 5.48587 0.438322C5.01535 0.699193 4.61386 1.06856 4.31475 1.51574C3.55391 1.56155 2.83917 1.89575 2.31617 2.45024C1.79318 3.00473 1.50129 3.73777 1.5 4.49999C1.30109 4.49999 1.11032 4.57901 0.96967 4.71966C0.829018 4.86031 0.75 5.05108 0.75 5.24999V14.25C0.751191 15.2442 1.14666 16.1973 1.84966 16.9003C2.55267 17.6033 3.5058 17.9988 4.5 18H10.5C11.4942 17.9988 12.4473 17.6033 13.1503 16.9003C13.8533 16.1973 14.2488 15.2442 14.25 14.25H14.625C15.3212 14.25 15.9889 13.9734 16.4812 13.4811C16.9734 12.9889 17.25 12.3212 17.25 11.625V9.37499C17.25 8.6788 16.9734 8.01112 16.4812 7.51883C15.9889 7.02655 15.3212 6.74999 14.625 6.74999ZM4.5 2.99999C4.54313 3.0014 4.58606 3.00667 4.62825 3.01574C4.78988 3.04202 4.95567 3.01468 5.1003 2.93789C5.24494 2.86111 5.36047 2.7391 5.42925 2.59049C5.56637 2.29938 5.77611 2.04846 6.03828 1.86188C6.30045 1.67529 6.60622 1.55932 6.92619 1.52511C7.24615 1.49091 7.56953 1.53963 7.86522 1.66658C8.1609 1.79353 8.41894 1.99445 8.6145 2.24999C8.81549 2.51696 9.0823 2.72723 9.38885 2.86026C9.69541 2.9933 10.0312 3.04454 10.3635 3.00899C10.6839 2.98376 11.0045 3.05451 11.2845 3.21224C11.5077 3.34367 11.6917 3.53235 11.8175 3.75875C11.9433 3.98516 12.0063 4.24106 12 4.49999H9C8.40326 4.49999 7.83097 4.73704 7.40901 5.159C6.98705 5.58096 6.75 6.15325 6.75 6.74999V8.99999C6.75 9.1989 6.67098 9.38967 6.53033 9.53032C6.38968 9.67097 6.19891 9.74999 6 9.74999C5.80109 9.74999 5.61032 9.67097 5.46967 9.53032C5.32902 9.38967 5.25 9.1989 5.25 8.99999V6.74999C5.25 6.15325 5.01295 5.58096 4.59099 5.159C4.16903 4.73704 3.59674 4.49999 3 4.49999C3 4.10216 3.15804 3.72063 3.43934 3.43933C3.72064 3.15802 4.10218 2.99999 4.5 2.99999ZM12.75 14.25C12.75 14.8467 12.5129 15.419 12.091 15.841C11.669 16.2629 11.0967 16.5 10.5 16.5H4.5C3.90326 16.5 3.33097 16.2629 2.90901 15.841C2.48705 15.419 2.25 14.8467 2.25 14.25V5.99999H3C3.19891 5.99999 3.38968 6.07901 3.53033 6.21966C3.67098 6.36031 3.75 6.55108 3.75 6.74999V8.99999C3.75 9.59673 3.98705 10.169 4.40901 10.591C4.83097 11.0129 5.40326 11.25 6 11.25C6.59674 11.25 7.16903 11.0129 7.59099 10.591C8.01295 10.169 8.25 9.59673 8.25 8.99999V6.74999C8.25 6.55108 8.32902 6.36031 8.46967 6.21966C8.61032 6.07901 8.80109 5.99999 9 5.99999H12.75V14.25ZM15.75 11.625C15.75 11.9234 15.6315 12.2095 15.4205 12.4205C15.2095 12.6315 14.9234 12.75 14.625 12.75H14.25V8.24999H14.625C14.9234 8.24999 15.2095 8.36852 15.4205 8.57949C15.6315 8.79047 15.75 9.07662 15.75 9.37499V11.625Z" fill="white"/>
</g>
<defs>
<clipPath id="clip0_348_8815">
<rect width="18" height="18" fill="white"/>
</clipPath>
</defs>
</svg>
