<svg width="15" height="15" viewBox="0 0 15 15" fill="none" xmlns="http://www.w3.org/2000/svg">
<path d="M7.59375 10.3125V11.625" stroke="white" stroke-linecap="round" stroke-linejoin="round"/>
<path d="M4.46875 13.75H10.7188V13.125C10.7188 12.4375 10.1562 11.875 9.46875 11.875H5.71875C5.03125 11.875 4.46875 12.4375 4.46875 13.125V13.75V13.75Z" stroke="white" stroke-miterlimit="10"/>
<path d="M3.84375 13.75H11.3438" stroke="white" stroke-linecap="round" stroke-linejoin="round"/>
<path d="M7.5 10C5.08125 10 3.125 8.04375 3.125 5.625V3.75C3.125 2.36875 4.24375 1.25 5.625 1.25H9.375C10.7563 1.25 11.875 2.36875 11.875 3.75V5.625C11.875 8.04375 9.91875 10 7.5 10Z" stroke="white" stroke-linecap="round" stroke-linejoin="round"/>
<path d="M3.41877 7.28125C2.95002 7.13125 2.53752 6.85625 2.21252 6.53125C1.65002 5.90625 1.27502 5.15625 1.27502 4.28125C1.27502 3.40625 1.96252 2.71875 2.83752 2.71875H3.24377C3.11877 3.00625 3.05627 3.325 3.05627 3.65625V5.53125C3.05627 6.15625 3.18752 6.74375 3.41877 7.28125Z" stroke="white" stroke-linecap="round" stroke-linejoin="round"/>
<path d="M11.5813 7.28125C12.05 7.13125 12.4625 6.85625 12.7875 6.53125C13.35 5.90625 13.725 5.15625 13.725 4.28125C13.725 3.40625 13.0375 2.71875 12.1625 2.71875H11.7563C11.8813 3.00625 11.9438 3.325 11.9438 3.65625V5.53125C11.9438 6.15625 11.8125 6.74375 11.5813 7.28125Z" stroke="white" stroke-linecap="round" stroke-linejoin="round"/>
</svg>
