<svg width="20" height="20" viewBox="0 0 20 20" fill="none" xmlns="http://www.w3.org/2000/svg">
<path d="M14.4082 3.44983L14.3499 6.60815C14.3415 7.04148 14.6166 7.6165 14.9666 7.87483L17.0332 9.44148C18.3582 10.4415 18.1416 11.6665 16.5582 12.1665L13.8666 13.0081C13.4166 13.1498 12.9416 13.6415 12.8249 14.0998L12.1832 16.5498C11.6749 18.4831 10.4082 18.6748 9.35821 16.9748L7.89154 14.5998C7.62487 14.1665 6.99154 13.8415 6.49154 13.8665L3.70824 14.0082C1.71657 14.1082 1.1499 12.9582 2.4499 11.4415L4.09988 9.52481C4.40821 9.16648 4.54988 8.49982 4.40821 8.04982L3.56659 5.35815C3.07492 3.77481 3.95824 2.89983 5.53324 3.41649L7.99158 4.22483C8.40825 4.35816 9.03324 4.26648 9.38324 4.00815L11.9499 2.15815C13.3333 1.15815 14.4415 1.7415 14.4082 3.44983Z" stroke="#F8D02D" stroke-width="1.5" stroke-linecap="round" stroke-linejoin="round"/>
<path d="M18.2584 18.3331L15.7334 15.8081" stroke="#F8D02D" stroke-width="1.5" stroke-linecap="round" stroke-linejoin="round"/>
</svg>
