<svg width="15" height="15" viewBox="0 0 15 15" fill="none" xmlns="http://www.w3.org/2000/svg">
<path d="M7.51213 1.81885C5.44338 1.81885 3.76213 3.5001 3.76213 5.56885V7.3751C3.76213 7.75635 3.59963 8.3376 3.40588 8.6626L2.68713 9.85635C2.24338 10.5938 2.54963 11.4126 3.36213 11.6876C6.05588 12.5876 8.96213 12.5876 11.6559 11.6876C12.4121 11.4376 12.7434 10.5438 12.3309 9.85635L11.6121 8.6626C11.4246 8.3376 11.2621 7.75635 11.2621 7.3751V5.56885C11.2621 3.50635 9.57463 1.81885 7.51213 1.81885Z" stroke="white" stroke-miterlimit="10" stroke-linecap="round"/>
<path d="M8.66895 1.9999C8.4752 1.94365 8.2752 1.8999 8.06895 1.8749C7.46895 1.7999 6.89395 1.84365 6.35645 1.9999C6.5377 1.5374 6.9877 1.2124 7.5127 1.2124C8.0377 1.2124 8.4877 1.5374 8.66895 1.9999Z" stroke="white" stroke-miterlimit="10" stroke-linecap="round" stroke-linejoin="round"/>
<path d="M9.3877 11.9126C9.3877 12.9438 8.54395 13.7876 7.5127 13.7876C7.0002 13.7876 6.52519 13.5751 6.18769 13.2376C5.85019 12.9001 5.6377 12.4251 5.6377 11.9126" stroke="white" stroke-miterlimit="10"/>
</svg>
