<svg width="15" height="15" viewBox="0 0 15 15" fill="none" xmlns="http://www.w3.org/2000/svg">
<path d="M7.5 11.5625C9.74366 11.5625 11.5625 9.74366 11.5625 7.5C11.5625 5.25634 9.74366 3.4375 7.5 3.4375C5.25634 3.4375 3.4375 5.25634 3.4375 7.5C3.4375 9.74366 5.25634 11.5625 7.5 11.5625Z" stroke="white" stroke-linecap="round" stroke-linejoin="round"/>
<path d="M11.9625 11.9625L11.8813 11.8813M11.8813 3.11875L11.9625 3.0375L11.8813 3.11875ZM3.0375 11.9625L3.11875 11.8813L3.0375 11.9625ZM7.5 1.3V1.25V1.3ZM7.5 13.75V13.7V13.75ZM1.3 7.5H1.25H1.3ZM13.75 7.5H13.7H13.75ZM3.11875 3.11875L3.0375 3.0375L3.11875 3.11875Z" stroke="white" stroke-linecap="round" stroke-linejoin="round"/>
</svg>
