<svg width="24" height="24" viewBox="0 0 24 24" fill="none" xmlns="http://www.w3.org/2000/svg">
<path d="M19.5 8.99966H19V6.99966C19 6.73444 18.8946 6.48009 18.7071 6.29255C18.5196 6.10502 18.2652 5.99966 18 5.99966C18.0127 5.29034 17.8317 4.59099 17.4765 3.9769C17.1212 3.36281 16.6052 2.85726 15.984 2.51466C15.2657 2.11488 14.4437 1.94065 13.625 2.01466C13.5234 2.02727 13.4203 2.01335 13.3256 1.97428C13.231 1.9352 13.1481 1.87228 13.085 1.79166C12.6498 1.22147 12.0847 0.763349 11.4369 0.455349C10.7891 0.147349 10.0771 -0.00164073 9.36011 0.0207526C8.64313 0.043146 7.94185 0.236277 7.31449 0.584104C6.68713 0.931932 6.15182 1.42442 5.753 2.02066C4.73854 2.08174 3.78555 2.52735 3.08823 3.26666C2.3909 4.00598 2.00173 4.98337 2 5.99966C1.73478 5.99966 1.48043 6.10502 1.29289 6.29255C1.10536 6.48009 1 6.73444 1 6.99966V18.9997C1.00159 20.3253 1.52888 21.5961 2.46622 22.5334C3.40356 23.4708 4.6744 23.9981 6 23.9997H14C15.3256 23.9981 16.5964 23.4708 17.5338 22.5334C18.4711 21.5961 18.9984 20.3253 19 18.9997H19.5C20.4283 18.9997 21.3185 18.6309 21.9749 17.9745C22.6313 17.3182 23 16.4279 23 15.4997V12.4997C23 11.5714 22.6313 10.6812 21.9749 10.0248C21.3185 9.36841 20.4283 8.99966 19.5 8.99966ZM6 3.99966C6.05751 4.00154 6.11474 4.00856 6.171 4.02066C6.38651 4.0557 6.60756 4.01925 6.80041 3.91687C6.99325 3.81449 7.14729 3.6518 7.239 3.45366C7.42183 3.06552 7.70148 2.73096 8.05104 2.48218C8.4006 2.2334 8.8083 2.07876 9.23492 2.03316C9.66153 1.98755 10.0927 2.05251 10.487 2.22178C10.8812 2.39105 11.2253 2.65894 11.486 2.99966C11.754 3.35562 12.1097 3.63598 12.5185 3.81336C12.9272 3.99073 13.375 4.05906 13.818 4.01166C14.2452 3.97802 14.6727 4.07236 15.046 4.28266C15.3436 4.4579 15.5889 4.70947 15.7566 5.01134C15.9244 5.31322 16.0084 5.65442 16 5.99966H12C11.2044 5.99966 10.4413 6.31573 9.87868 6.87834C9.31607 7.44095 9 8.20401 9 8.99966V11.9997C9 12.2649 8.89464 12.5192 8.70711 12.7068C8.51957 12.8943 8.26522 12.9997 8 12.9997C7.73478 12.9997 7.48043 12.8943 7.29289 12.7068C7.10536 12.5192 7 12.2649 7 11.9997V8.99966C7 8.20401 6.68393 7.44095 6.12132 6.87834C5.55871 6.31573 4.79565 5.99966 4 5.99966C4 5.46923 4.21071 4.96052 4.58579 4.58545C4.96086 4.21037 5.46957 3.99966 6 3.99966ZM17 18.9997C17 19.7953 16.6839 20.5584 16.1213 21.121C15.5587 21.6836 14.7956 21.9997 14 21.9997H6C5.20435 21.9997 4.44129 21.6836 3.87868 21.121C3.31607 20.5584 3 19.7953 3 18.9997V7.99966H4C4.26522 7.99966 4.51957 8.10502 4.70711 8.29255C4.89464 8.48009 5 8.73444 5 8.99966V11.9997C5 12.7953 5.31607 13.5584 5.87868 14.121C6.44129 14.6836 7.20435 14.9997 8 14.9997C8.79565 14.9997 9.55871 14.6836 10.1213 14.121C10.6839 13.5584 11 12.7953 11 11.9997V8.99966C11 8.73444 11.1054 8.48009 11.2929 8.29255C11.4804 8.10502 11.7348 7.99966 12 7.99966H17V18.9997ZM21 15.4997C21 15.8975 20.842 16.279 20.5607 16.5603C20.2794 16.8416 19.8978 16.9997 19.5 16.9997H19V10.9997H19.5C19.8978 10.9997 20.2794 11.1577 20.5607 11.439C20.842 11.7203 21 12.1018 21 12.4997V15.4997Z" fill="url(#paint0_linear_404_8911)"/>
<defs>
<linearGradient id="paint0_linear_404_8911" x1="23" y1="12.0091" x2="1" y2="12.0091" gradientUnits="userSpaceOnUse">
<stop stop-color="#F06F26"/>
<stop offset="1" stop-color="#F1C112"/>
</linearGradient>
</defs>
</svg>
