<svg width="50" height="50" viewBox="0 0 50 50" fill="none" xmlns="http://www.w3.org/2000/svg">
<path d="M16.75 3H9.41667C5.87833 3 3 5.87833 3 9.41667V16.75C3 20.2883 5.87833 23.1667 9.41667 23.1667H16.75C20.2883 23.1667 23.1667 20.2883 23.1667 16.75V9.41667C23.1667 5.87833 20.2883 3 16.75 3ZM21.3333 16.75C21.3333 19.2763 19.2763 21.3333 16.75 21.3333H9.41667C6.89033 21.3333 4.83333 19.2763 4.83333 16.75V9.41667C4.83333 6.89033 6.89033 4.83333 9.41667 4.83333H16.75C19.2763 4.83333 21.3333 6.89033 21.3333 9.41667V16.75ZM14.9167 8.5H11.25C9.73383 8.5 8.5 9.73383 8.5 11.25V14.9167C8.5 16.4328 9.73383 17.6667 11.25 17.6667H14.9167C16.4328 17.6667 17.6667 16.4328 17.6667 14.9167V11.25C17.6667 9.73383 16.4328 8.5 14.9167 8.5ZM15.8333 14.9167C15.8333 15.4227 15.4227 15.8333 14.9167 15.8333H11.25C10.744 15.8333 10.3333 15.4227 10.3333 14.9167V11.25C10.3333 10.744 10.744 10.3333 11.25 10.3333H14.9167C15.4227 10.3333 15.8333 10.744 15.8333 11.25V14.9167ZM40.5833 3H33.25C29.7117 3 26.8333 5.87833 26.8333 9.41667V16.75C26.8333 20.2883 29.7117 23.1667 33.25 23.1667H40.5833C44.1217 23.1667 47 20.2883 47 16.75V9.41667C47 5.87833 44.1217 3 40.5833 3ZM45.1667 16.75C45.1667 19.2763 43.1115 21.3333 40.5833 21.3333H33.25C30.7218 21.3333 28.6667 19.2763 28.6667 16.75V9.41667C28.6667 6.89033 30.7218 4.83333 33.25 4.83333H40.5833C43.1115 4.83333 45.1667 6.89033 45.1667 9.41667V16.75ZM38.75 8.5H35.0833C33.5672 8.5 32.3333 9.73383 32.3333 11.25V14.9167C32.3333 16.4328 33.5672 17.6667 35.0833 17.6667H38.75C40.2662 17.6667 41.5 16.4328 41.5 14.9167V11.25C41.5 9.73383 40.2662 8.5 38.75 8.5ZM39.6667 14.9167C39.6667 15.4227 39.2542 15.8333 38.75 15.8333H35.0833C34.5792 15.8333 34.1667 15.4227 34.1667 14.9167V11.25C34.1667 10.744 34.5792 10.3333 35.0833 10.3333H38.75C39.2542 10.3333 39.6667 10.744 39.6667 11.25V14.9167ZM16.75 26.8333H9.41667C5.87833 26.8333 3 29.7117 3 33.25V40.5833C3 44.1217 5.87833 47 9.41667 47H16.75C20.2883 47 23.1667 44.1217 23.1667 40.5833V33.25C23.1667 29.7117 20.2883 26.8333 16.75 26.8333ZM21.3333 40.5833C21.3333 43.1097 19.2763 45.1667 16.75 45.1667H9.41667C6.89033 45.1667 4.83333 43.1097 4.83333 40.5833V33.25C4.83333 30.7237 6.89033 28.6667 9.41667 28.6667H16.75C19.2763 28.6667 21.3333 30.7237 21.3333 33.25V40.5833ZM14.9167 32.3333H11.25C9.73383 32.3333 8.5 33.5672 8.5 35.0833V38.75C8.5 40.2662 9.73383 41.5 11.25 41.5H14.9167C16.4328 41.5 17.6667 40.2662 17.6667 38.75V35.0833C17.6667 33.5672 16.4328 32.3333 14.9167 32.3333ZM15.8333 38.75C15.8333 39.256 15.4227 39.6667 14.9167 39.6667H11.25C10.744 39.6667 10.3333 39.256 10.3333 38.75V35.0833C10.3333 34.5773 10.744 34.1667 11.25 34.1667H14.9167C15.4227 34.1667 15.8333 34.5773 15.8333 35.0833V38.75ZM44.25 26.8333H42.4167C40.9005 26.8333 39.6667 28.0672 39.6667 29.5833V32.3333H34.1667V29.5833C34.1667 28.0672 32.9328 26.8333 31.4167 26.8333H29.5833C28.0672 26.8333 26.8333 28.0672 26.8333 29.5833V31.4167C26.8333 32.9328 28.0672 34.1667 29.5833 34.1667H32.3333V39.6667H29.5833C28.0672 39.6667 26.8333 40.9005 26.8333 42.4167V44.25C26.8333 45.7662 28.0672 47 29.5833 47H31.4167C32.9328 47 34.1667 45.7662 34.1667 44.25V41.5H38.75C40.2662 41.5 41.5 40.2662 41.5 38.75V34.1667H44.25C45.7662 34.1667 47 32.9328 47 31.4167V29.5833C47 28.0672 45.7662 26.8333 44.25 26.8333ZM28.6667 31.4167V29.5833C28.6667 29.0773 29.0792 28.6667 29.5833 28.6667H31.4167C31.9208 28.6667 32.3333 29.0773 32.3333 29.5833V32.3333H29.5833C29.0792 32.3333 28.6667 31.9227 28.6667 31.4167ZM32.3333 44.25C32.3333 44.756 31.9208 45.1667 31.4167 45.1667H29.5833C29.0792 45.1667 28.6667 44.756 28.6667 44.25V42.4167C28.6667 41.9107 29.0792 41.5 29.5833 41.5H32.3333V44.25ZM39.6667 38.75C39.6667 39.256 39.2542 39.6667 38.75 39.6667H34.1667V34.1667H39.6667V38.75ZM45.1667 31.4167C45.1667 31.9227 44.7542 32.3333 44.25 32.3333H41.5V29.5833C41.5 29.0773 41.9125 28.6667 42.4167 28.6667H44.25C44.7542 28.6667 45.1667 29.0773 45.1667 29.5833V31.4167Z" fill="url(#paint0_linear_214_6584)"/>
<defs>
<linearGradient id="paint0_linear_214_6584" x1="47" y1="25" x2="3" y2="25" gradientUnits="userSpaceOnUse">
<stop stop-color="#F06F26"/>
<stop offset="1" stop-color="#F1C112"/>
</linearGradient>
</defs>
</svg>
