<svg width="44" height="44" viewBox="0 0 44 44" fill="none" xmlns="http://www.w3.org/2000/svg">
<path d="M10.1676 3.6685C10.153 3.6685 10.1603 3.6685 10.1676 3.6685V3.6685ZM42.1666 22.9167V30.25C42.1666 32.7782 40.1096 34.8333 37.5833 34.8333H34.8333V35.75C34.8333 40.2985 31.1318 44 26.5833 44H10.0833C5.53481 44 1.83331 40.2985 1.83331 35.75V15.5833C1.83331 14.0873 2.55381 12.7563 3.66665 11.9185V10.0833C3.66665 6.545 6.56331 3.674 10.1676 3.6685C10.175 3.6685 10.1805 3.6685 10.1676 3.6685C11.4711 1.42083 13.8875 0 16.4981 0C19.3416 0 21.8735 1.63533 23.078 4.16167C23.9158 3.8335 24.783 3.66667 25.6648 3.66667C29.7091 3.66667 32.9981 6.95567 32.9981 11V11.9167C34.111 12.7527 34.8315 14.0855 34.8315 15.5833V18.3333H37.5815C40.1078 18.3333 42.1666 20.3885 42.1666 22.9167ZM5.49998 11.0917C5.79698 11.0312 6.10315 11 6.41665 11H11.9166C12.4226 11 12.8333 11.4107 12.8333 11.9167V24.5538C12.8333 26.0003 13.8141 27.2507 15.1158 27.4633C15.939 27.5917 16.7401 27.379 17.3635 26.8473C17.9795 26.323 18.3333 25.5585 18.3333 24.75V11.9167C18.3333 11.4107 18.744 11 19.25 11H30.25C30.5635 11 30.8696 11.0312 31.1666 11.0917C31.1666 7.97317 28.699 5.5 25.6666 5.5C24.7665 5.5 23.8791 5.73833 23.0303 6.20583C22.792 6.3415 22.5041 6.35617 22.2475 6.25533C21.9926 6.15267 21.7965 5.94183 21.7121 5.6815C20.9825 3.38067 18.887 1.83333 16.4981 1.83333C14.3751 1.83333 12.4226 3.08917 11.5206 5.03067C11.3556 5.3845 10.978 5.59717 10.593 5.555C10.593 5.555 10.1823 5.5 10.0815 5.5C7.55515 5.5 5.49815 7.55517 5.49815 10.0833L5.49998 11.0917ZM33 15.5833C33 14.0672 31.7661 12.8333 30.25 12.8333H20.1666V24.75C20.1666 26.0957 19.5781 27.3698 18.5515 28.2425C17.5266 29.1152 16.17 29.4928 14.8206 29.271C12.6426 28.9172 11.0018 26.8877 11.0018 24.5538V12.8333H6.41848C4.90231 12.8333 3.66848 14.0672 3.66848 15.5833V35.75C3.66848 39.2883 6.54681 42.1667 10.0851 42.1667H26.5851C30.1235 42.1667 33.0018 39.2883 33.0018 35.75L33 15.5833ZM40.3333 22.9167C40.3333 21.4005 39.0995 20.1667 37.5833 20.1667H34.8333V33H37.5833C39.0995 33 40.3333 31.7662 40.3333 30.25V22.9167Z" fill="url(#paint0_linear_193_5713)"/>
<defs>
<linearGradient id="paint0_linear_193_5713" x1="42.1666" y1="22" x2="1.83331" y2="22" gradientUnits="userSpaceOnUse">
<stop stop-color="#F06F26"/>
<stop offset="1" stop-color="#F1C112"/>
</linearGradient>
</defs>
</svg>
