<svg width="20" height="20" viewBox="0 0 20 20" fill="none" xmlns="http://www.w3.org/2000/svg">
<path d="M15.8333 7.49984C15.8333 8.70817 15.475 9.81652 14.8583 10.7415C13.9583 12.0748 12.5333 13.0165 10.875 13.2582C10.5917 13.3082 10.3 13.3332 9.99999 13.3332C9.69999 13.3332 9.40832 13.3082 9.12499 13.2582C7.46666 13.0165 6.04166 12.0748 5.14166 10.7415C4.52499 9.81652 4.16666 8.70817 4.16666 7.49984C4.16666 4.27484 6.77499 1.6665 9.99999 1.6665C13.225 1.6665 15.8333 4.27484 15.8333 7.49984Z" stroke="white" stroke-width="1.5" stroke-linecap="round" stroke-linejoin="round"/>
<path d="M17.7083 15.3917L16.3333 15.7167C16.025 15.7917 15.7833 16.025 15.7167 16.3333L15.425 17.5583C15.2667 18.225 14.4167 18.425 13.975 17.9L10 13.3333L6.02499 17.9083C5.58333 18.4333 4.73333 18.2333 4.57499 17.5667L4.28333 16.3417C4.20833 16.0333 3.96666 15.7917 3.66666 15.725L2.29166 15.4C1.65833 15.25 1.43333 14.4583 1.89166 14L5.14166 10.75C6.04166 12.0833 7.46666 13.025 9.12499 13.2667C9.40833 13.3167 9.7 13.3417 10 13.3417C10.3 13.3417 10.5917 13.3167 10.875 13.2667C12.5333 13.025 13.9583 12.0833 14.8583 10.75L18.1083 14C18.5667 14.45 18.3417 15.2417 17.7083 15.3917Z" stroke="white" stroke-width="1.5" stroke-linecap="round" stroke-linejoin="round"/>
<path d="M10.4833 4.9835L10.975 5.96682C11.0417 6.10016 11.2167 6.2335 11.375 6.2585L12.2667 6.40849C12.8333 6.50016 12.9667 6.91683 12.5583 7.32516L11.8667 8.01682C11.75 8.13348 11.6833 8.3585 11.725 8.52516L11.925 9.38349C12.0833 10.0585 11.725 10.3251 11.125 9.96681L10.2917 9.47515C10.1417 9.38348 9.89166 9.38348 9.74166 9.47515L8.90833 9.96681C8.30833 10.3168 7.95 10.0585 8.10833 9.38349L8.30833 8.52516C8.34166 8.36683 8.28333 8.13348 8.16666 8.01682L7.475 7.32516C7.06666 6.91683 7.2 6.50849 7.76666 6.40849L8.65833 6.2585C8.80833 6.2335 8.98333 6.10016 9.05 5.96682L9.54166 4.9835C9.78333 4.45016 10.2167 4.45016 10.4833 4.9835Z" stroke="white" stroke-width="1.5" stroke-linecap="round" stroke-linejoin="round"/>
</svg>
