<svg width="20" height="20" viewBox="0 0 20 20" fill="none" xmlns="http://www.w3.org/2000/svg">
<path d="M9.99999 11.1917C11.4359 11.1917 12.6 10.0276 12.6 8.5917C12.6 7.15576 11.4359 5.9917 9.99999 5.9917C8.56405 5.9917 7.39999 7.15576 7.39999 8.5917C7.39999 10.0276 8.56405 11.1917 9.99999 11.1917Z" stroke="url(#paint0_linear_346_6462)" stroke-width="1.5"/>
<path d="M3.01666 7.07484C4.65832 -0.141827 15.35 -0.133494 16.9833 7.08317C17.9417 11.3165 15.3083 14.8998 13 17.1165C11.325 18.7332 8.67499 18.7332 6.99166 17.1165C4.69166 14.8998 2.05832 11.3082 3.01666 7.07484Z" stroke="url(#paint1_linear_346_6462)" stroke-width="1.5"/>
<defs>
<linearGradient id="paint0_linear_346_6462" x1="12.6" y1="8.5917" x2="7.39999" y2="8.5917" gradientUnits="userSpaceOnUse">
<stop stop-color="#F06F26"/>
<stop offset="1" stop-color="#F1C112"/>
</linearGradient>
<linearGradient id="paint1_linear_346_6462" x1="17.1856" y1="9.99776" x2="2.81436" y2="9.99776" gradientUnits="userSpaceOnUse">
<stop stop-color="#F06F26"/>
<stop offset="1" stop-color="#F1C112"/>
</linearGradient>
</defs>
</svg>
