<svg width="20" height="20" viewBox="0 0 20 20" fill="none" xmlns="http://www.w3.org/2000/svg">
<path d="M7.475 18.3337H12.475C16.6417 18.3337 18.3083 16.667 18.3083 12.5003V7.50033C18.3083 3.33366 16.6417 1.66699 12.475 1.66699H7.475C3.30833 1.66699 1.64166 3.33366 1.64166 7.50033V12.5003C1.64166 16.667 3.30833 18.3337 7.475 18.3337Z" stroke="#299D58" stroke-width="1.5" stroke-linecap="round" stroke-linejoin="round"/>
<path d="M1.64166 10.5831L6.64166 10.5664C7.26666 10.5664 7.96666 11.0414 8.2 11.6248L9.15 14.0248C9.36666 14.5664 9.70833 14.5664 9.925 14.0248L11.8333 9.1831C12.0167 8.71643 12.3583 8.69977 12.5917 9.14143L13.4583 10.7831C13.7167 11.2748 14.3833 11.6748 14.9333 11.6748H18.3167" stroke="#299D58" stroke-width="1.5" stroke-linecap="round" stroke-linejoin="round"/>
</svg>
