<svg width="22" height="22" viewBox="0 0 22 22" fill="none" xmlns="http://www.w3.org/2000/svg">
<path d="M17.4168 8.25016C17.4168 9.57933 17.0227 10.7985 16.3443 11.816C15.3543 13.2827 13.7868 14.3185 11.9627 14.5843C11.651 14.6393 11.3302 14.6668 11.0002 14.6668C10.6702 14.6668 10.3493 14.6393 10.0377 14.5843C8.2135 14.3185 6.646 13.2827 5.656 11.816C4.97766 10.7985 4.5835 9.57933 4.5835 8.25016C4.5835 4.70266 7.45266 1.8335 11.0002 1.8335C14.5477 1.8335 17.4168 4.70266 17.4168 8.25016Z" stroke="white" stroke-width="1.5" stroke-linecap="round" stroke-linejoin="round"/>
<path d="M19.4792 16.931L17.9667 17.2885C17.6275 17.371 17.3617 17.6277 17.2883 17.9669L16.9675 19.3144C16.7933 20.0477 15.8583 20.2677 15.3725 19.6902L11 14.6669L6.62749 19.6994C6.14166 20.2769 5.20666 20.0569 5.03249 19.3235L4.71166 17.976C4.62916 17.6369 4.36332 17.371 4.03332 17.2977L2.52082 16.9402C1.82416 16.7752 1.57666 15.9044 2.08082 15.4002L5.65582 11.8252C6.64582 13.2919 8.21332 14.3277 10.0375 14.5935C10.3492 14.6485 10.67 14.676 11 14.676C11.33 14.676 11.6508 14.6485 11.9625 14.5935C13.7867 14.3277 15.3542 13.2919 16.3442 11.8252L19.9192 15.4002C20.4233 15.8952 20.1758 16.766 19.4792 16.931Z" stroke="white" stroke-width="1.5" stroke-linecap="round" stroke-linejoin="round"/>
<path d="M11.5318 5.4815L12.0726 6.56316C12.146 6.70983 12.3385 6.8565 12.5126 6.884L13.4935 7.049C14.1168 7.14983 14.2635 7.60817 13.8143 8.05734L13.0535 8.81816C12.9251 8.94649 12.8518 9.194 12.8976 9.37734L13.1176 10.3215C13.2918 11.064 12.8976 11.3573 12.2376 10.9632L11.321 10.4223C11.156 10.3215 10.881 10.3215 10.716 10.4223L9.7993 10.9632C9.1393 11.3482 8.74514 11.064 8.9193 10.3215L9.1393 9.37734C9.17597 9.20317 9.1118 8.94649 8.98347 8.81816L8.22264 8.05734C7.77347 7.60817 7.92014 7.159 8.54347 7.049L9.5243 6.884C9.6893 6.8565 9.8818 6.70983 9.95514 6.56316L10.496 5.4815C10.7618 4.89484 11.2385 4.89484 11.5318 5.4815Z" stroke="white" stroke-width="1.5" stroke-linecap="round" stroke-linejoin="round"/>
</svg>
