<svg width="25" height="25" viewBox="0 0 25 25" fill="none" xmlns="http://www.w3.org/2000/svg">
<g clip-path="url(#clip0_634_696)">
<path d="M8.85417 4.16667H6.77083C5.33542 4.16667 4.16667 5.33542 4.16667 6.77083V8.85417C4.16667 10.2896 5.33542 11.4583 6.77083 11.4583H8.85417C10.2896 11.4583 11.4583 10.2896 11.4583 8.85417V6.77083C11.4583 5.33542 10.2896 4.16667 8.85417 4.16667ZM9.375 8.85417C9.375 9.14167 9.14167 9.375 8.85417 9.375H6.77083C6.48333 9.375 6.25 9.14167 6.25 8.85417V6.77083C6.25 6.48333 6.48333 6.25 6.77083 6.25H8.85417C9.14167 6.25 9.375 6.48333 9.375 6.77083V8.85417ZM16.1458 11.4583H18.2292C19.6646 11.4583 20.8333 10.2896 20.8333 8.85417V6.77083C20.8333 5.33542 19.6646 4.16667 18.2292 4.16667H16.1458C14.7104 4.16667 13.5417 5.33542 13.5417 6.77083V8.85417C13.5417 10.2896 14.7104 11.4583 16.1458 11.4583ZM15.625 6.77083C15.625 6.48333 15.8583 6.25 16.1458 6.25H18.2292C18.5167 6.25 18.75 6.48333 18.75 6.77083V8.85417C18.75 9.14167 18.5167 9.375 18.2292 9.375H16.1458C15.8583 9.375 15.625 9.14167 15.625 8.85417V6.77083ZM8.85417 13.5417H6.77083C5.33542 13.5417 4.16667 14.7104 4.16667 16.1458V18.2292C4.16667 19.6646 5.33542 20.8333 6.77083 20.8333H8.85417C10.2896 20.8333 11.4583 19.6646 11.4583 18.2292V16.1458C11.4583 14.7104 10.2896 13.5417 8.85417 13.5417ZM9.375 18.2292C9.375 18.5167 9.14167 18.75 8.85417 18.75H6.77083C6.48333 18.75 6.25 18.5167 6.25 18.2292V16.1458C6.25 15.8583 6.48333 15.625 6.77083 15.625H8.85417C9.14167 15.625 9.375 15.8583 9.375 16.1458V18.2292ZM8.33333 23.9583C8.33333 24.5333 7.86667 25 7.29167 25H5.20833C2.33646 25 0 22.6635 0 19.7917V17.7083C0 17.1333 0.466667 16.6667 1.04167 16.6667C1.61667 16.6667 2.08333 17.1333 2.08333 17.7083V19.7917C2.08333 21.5146 3.48542 22.9167 5.20833 22.9167H7.29167C7.86667 22.9167 8.33333 23.3833 8.33333 23.9583ZM25 17.7083V19.7917C25 22.6635 22.6635 25 19.7917 25H17.7083C17.1333 25 16.6667 24.5333 16.6667 23.9583C16.6667 23.3833 17.1333 22.9167 17.7083 22.9167H19.7917C21.5146 22.9167 22.9167 21.5146 22.9167 19.7917V17.7083C22.9167 17.1333 23.3833 16.6667 23.9583 16.6667C24.5333 16.6667 25 17.1333 25 17.7083ZM25 5.20833V7.29167C25 7.86667 24.5333 8.33333 23.9583 8.33333C23.3833 8.33333 22.9167 7.86667 22.9167 7.29167V5.20833C22.9167 3.48542 21.5146 2.08333 19.7917 2.08333H17.7083C17.1333 2.08333 16.6667 1.61667 16.6667 1.04167C16.6667 0.466667 17.1333 0 17.7083 0H19.7917C22.6635 0 25 2.33646 25 5.20833ZM0 7.29167V5.20833C0 2.33646 2.33646 0 5.20833 0H7.29167C7.86667 0 8.33333 0.466667 8.33333 1.04167C8.33333 1.61667 7.86667 2.08333 7.29167 2.08333H5.20833C3.48542 2.08333 2.08333 3.48542 2.08333 5.20833V7.29167C2.08333 7.86667 1.61667 8.33333 1.04167 8.33333C0.466667 8.33333 0 7.86667 0 7.29167ZM16.6667 19.2708C16.6667 20.1333 15.9667 20.8333 15.1042 20.8333C14.2417 20.8333 13.5417 20.1333 13.5417 19.2708C13.5417 18.4083 14.2417 17.7083 15.1042 17.7083C15.9667 17.7083 16.6667 18.4083 16.6667 19.2708ZM19.2708 13.5417C20.1333 13.5417 20.8333 14.2417 20.8333 15.1042C20.8333 15.9667 20.1333 16.6667 19.2708 16.6667C18.4083 16.6667 17.7083 15.9667 17.7083 15.1042C17.7083 14.2417 18.4083 13.5417 19.2708 13.5417ZM13.5417 15.1042C13.5417 14.2417 14.2417 13.5417 15.1042 13.5417C15.9667 13.5417 16.6667 14.2417 16.6667 15.1042C16.6667 15.9667 15.9667 16.6667 15.1042 16.6667C14.2417 16.6667 13.5417 15.9667 13.5417 15.1042Z" fill="white"/>
</g>
<defs>
<clipPath id="clip0_634_696">
<rect width="25" height="25" fill="white"/>
</clipPath>
</defs>
</svg>
