<svg width="19" height="19" viewBox="0 0 19 19" fill="none" xmlns="http://www.w3.org/2000/svg">
<g clip-path="url(#clip0_382_8169)">
<path d="M15.4373 7.12518H15.0415V5.54184C15.0415 5.33188 14.9581 5.13052 14.8096 4.98205C14.6612 4.83359 14.4598 4.75018 14.2498 4.75018C14.2599 4.18863 14.1166 3.63498 13.8354 3.14883C13.5542 2.66268 13.1456 2.26244 12.6538 1.99122C12.0852 1.67473 11.4344 1.5368 10.7863 1.59539C10.7059 1.60537 10.6242 1.59435 10.5493 1.56342C10.4744 1.53248 10.4088 1.48267 10.3588 1.41885C10.0142 0.967443 9.56693 0.604765 9.05405 0.360932C8.54118 0.117099 7.97753 -0.000851318 7.40993 0.0168768C6.84232 0.0346048 6.28713 0.1875 5.79047 0.462863C5.29382 0.738227 4.87003 1.12811 4.5543 1.60014C3.75118 1.64849 2.99673 2.00126 2.44469 2.58655C1.89264 3.17185 1.58454 3.94561 1.58317 4.75018C1.37321 4.75018 1.17184 4.83359 1.02338 4.98205C0.874911 5.13052 0.791504 5.33188 0.791504 5.54184V15.0418C0.792761 16.0913 1.2102 17.0974 1.95226 17.8394C2.69432 18.5815 3.70041 18.9989 4.74984 19.0002H11.0832C12.1326 18.9989 13.1387 18.5815 13.8807 17.8394C14.6228 17.0974 15.0402 16.0913 15.0415 15.0418H15.4373C16.1722 15.0418 16.877 14.7499 17.3966 14.2303C17.9162 13.7107 18.2082 13.0059 18.2082 12.271V9.89601C18.2082 9.16114 17.9162 8.45637 17.3966 7.93674C16.877 7.4171 16.1722 7.12518 15.4373 7.12518ZM4.74984 3.16684C4.79537 3.16833 4.84067 3.17389 4.88521 3.18347C5.05582 3.21121 5.23082 3.18235 5.38349 3.1013C5.53616 3.02025 5.65811 2.89146 5.73071 2.73459C5.87545 2.42732 6.09684 2.16246 6.37358 1.96551C6.65031 1.76855 6.97307 1.64614 7.31081 1.61003C7.64855 1.57393 7.9899 1.62535 8.30201 1.75936C8.61412 1.89336 8.88649 2.10544 9.09292 2.37518C9.30508 2.65698 9.58671 2.87893 9.91029 3.01936C10.2339 3.15978 10.5883 3.21387 10.9391 3.17635C11.2773 3.14971 11.6157 3.2244 11.9113 3.39089C12.1468 3.52962 12.3411 3.72878 12.4738 3.96776C12.6066 4.20674 12.6731 4.47687 12.6665 4.75018H9.49984C8.86995 4.75018 8.26586 5.0004 7.82046 5.4458C7.37506 5.8912 7.12484 6.49529 7.12484 7.12518V9.50018C7.12484 9.71014 7.04143 9.9115 6.89296 10.06C6.7445 10.2084 6.54313 10.2918 6.33317 10.2918C6.12321 10.2918 5.92184 10.2084 5.77338 10.06C5.62491 9.9115 5.5415 9.71014 5.5415 9.50018V7.12518C5.5415 6.49529 5.29128 5.8912 4.84588 5.4458C4.40048 5.0004 3.79639 4.75018 3.1665 4.75018C3.1665 4.33025 3.33332 3.92753 3.63025 3.63059C3.92718 3.33366 4.32991 3.16684 4.74984 3.16684ZM13.4582 15.0418C13.4582 15.6717 13.2079 16.2758 12.7625 16.7212C12.3172 17.1666 11.7131 17.4168 11.0832 17.4168H4.74984C4.11995 17.4168 3.51586 17.1666 3.07046 16.7212C2.62506 16.2758 2.37484 15.6717 2.37484 15.0418V6.33351H3.1665C3.37647 6.33351 3.57783 6.41692 3.7263 6.56539C3.87476 6.71385 3.95817 6.91522 3.95817 7.12518V9.50018C3.95817 10.1301 4.20839 10.7342 4.65379 11.1796C5.09919 11.625 5.70328 11.8752 6.33317 11.8752C6.96306 11.8752 7.56715 11.625 8.01255 11.1796C8.45795 10.7342 8.70817 10.1301 8.70817 9.50018V7.12518C8.70817 6.91522 8.79158 6.71385 8.94004 6.56539C9.08851 6.41692 9.28987 6.33351 9.49984 6.33351H13.4582V15.0418ZM16.6248 12.271C16.6248 12.586 16.4997 12.888 16.277 13.1107C16.0543 13.3334 15.7523 13.4585 15.4373 13.4585H15.0415V8.70851H15.4373C15.7523 8.70851 16.0543 8.83362 16.277 9.05632C16.4997 9.27902 16.6248 9.58107 16.6248 9.89601V12.271Z" fill="#1F1F1F"/>
</g>
<defs>
<clipPath id="clip0_382_8169">
<rect width="19" height="19" fill="white"/>
</clipPath>
</defs>
</svg>
