<svg width="15" height="15" viewBox="0 0 15 15" fill="none" xmlns="http://www.w3.org/2000/svg">
<path d="M8.58107 2.19365L9.68107 4.39365C9.83107 4.6999 10.2311 4.99365 10.5686 5.0499L12.5623 5.38115C13.8373 5.59365 14.1373 6.51865 13.2186 7.43115L11.6686 8.98115C11.4061 9.24365 11.2623 9.7499 11.3436 10.1124L11.7873 12.0312C12.1373 13.5499 11.3311 14.1374 9.98732 13.3437L8.11857 12.2374C7.78107 12.0374 7.22482 12.0374 6.88107 12.2374L5.01232 13.3437C3.67482 14.1374 2.86232 13.5437 3.21232 12.0312L3.65607 10.1124C3.73732 9.7499 3.59357 9.24365 3.33107 8.98115L1.78107 7.43115C0.868571 6.51865 1.16232 5.59365 2.43732 5.38115L4.43107 5.0499C4.76232 4.99365 5.16232 4.6999 5.31232 4.39365L6.41232 2.19365C7.01232 0.999902 7.98732 0.999902 8.58107 2.19365Z" fill="#F8D02D" stroke="#F8D02D" stroke-width="1.5" stroke-linecap="round" stroke-linejoin="round"/>
</svg>
