<svg width="15" height="15" viewBox="0 0 15 15" fill="none" xmlns="http://www.w3.org/2000/svg">
<path d="M6.55586 1.39385L3.43711 2.56885C2.71836 2.8376 2.13086 3.6876 2.13086 4.4501V9.09385C2.13086 9.83135 2.61836 10.8001 3.21211 11.2438L5.89961 13.2501C6.78086 13.9126 8.23086 13.9126 9.11211 13.2501L11.7996 11.2438C12.3934 10.8001 12.8809 9.83135 12.8809 9.09385V4.4501C12.8809 3.68135 12.2934 2.83135 11.5746 2.5626L8.45586 1.39385C7.92461 1.2001 7.07461 1.2001 6.55586 1.39385Z" stroke="white" stroke-linecap="round" stroke-linejoin="round"/>
<path d="M7.5 7.8125C8.19036 7.8125 8.75 7.25286 8.75 6.5625C8.75 5.87214 8.19036 5.3125 7.5 5.3125C6.80964 5.3125 6.25 5.87214 6.25 6.5625C6.25 7.25286 6.80964 7.8125 7.5 7.8125Z" stroke="white" stroke-miterlimit="10" stroke-linecap="round" stroke-linejoin="round"/>
<path d="M7.5 7.8125V9.6875" stroke="white" stroke-miterlimit="10" stroke-linecap="round" stroke-linejoin="round"/>
</svg>
