<svg width="15" height="15" viewBox="0 0 15 15" fill="none" xmlns="http://www.w3.org/2000/svg">
<path d="M10.625 11.5186H8.125L5.34374 13.3686C4.93124 13.6436 4.375 13.3498 4.375 12.8498V11.5186C2.5 11.5186 1.25 10.2686 1.25 8.39359V4.64355C1.25 2.76855 2.5 1.51855 4.375 1.51855H10.625C12.5 1.51855 13.75 2.76855 13.75 4.64355V8.39359C13.75 10.2686 12.5 11.5186 10.625 11.5186Z" stroke="white" stroke-miterlimit="10" stroke-linecap="round" stroke-linejoin="round"/>
<path d="M7.50037 7.1001V6.96887C7.50037 6.54387 7.76289 6.31886 8.02539 6.13761C8.28164 5.96261 8.53786 5.73762 8.53786 5.32512C8.53786 4.75012 8.07537 4.2876 7.50037 4.2876C6.92537 4.2876 6.46289 4.75012 6.46289 5.32512" stroke="white" stroke-linecap="round" stroke-linejoin="round"/>
<path d="M7.49719 8.59375H7.50281" stroke="white" stroke-linecap="round" stroke-linejoin="round"/>
</svg>
