<svg width="16" height="20" viewBox="0 0 16 20" fill="none" xmlns="http://www.w3.org/2000/svg">
<path d="M16 5V15C16 19 15 20 11 20H5C1 20 0 19 0 15V5C0 1 1 0 5 0H11C15 0 16 1 16 5Z" stroke="#0F0F0F" stroke-width="1.5" stroke-linecap="round" stroke-linejoin="round"/>
<path d="M10 3.5H6" stroke="#0F0F0F" stroke-width="1.5" stroke-linecap="round" stroke-linejoin="round"/>
<path d="M8.0002 17.1C8.85624 17.1 9.5502 16.406 9.5502 15.55C9.5502 14.694 8.85624 14 8.0002 14C7.14415 14 6.4502 14.694 6.4502 15.55C6.4502 16.406 7.14415 17.1 8.0002 17.1Z" stroke="#0F0F0F" stroke-width="1.5" stroke-linecap="round" stroke-linejoin="round"/>
</svg>
