<svg width="20" height="20" viewBox="0 0 20 20" fill="none" xmlns="http://www.w3.org/2000/svg">
<path d="M10.0003 18.3337C14.6027 18.3337 18.3337 14.6027 18.3337 10.0003C18.3337 5.39795 14.6027 1.66699 10.0003 1.66699C5.39795 1.66699 1.66699 5.39795 1.66699 10.0003C1.66699 14.6027 5.39795 18.3337 10.0003 18.3337Z" stroke="#0F0F0F" stroke-width="1.5" stroke-miterlimit="10" stroke-linecap="round" stroke-linejoin="round"/>
<path d="M9.99999 12.4001C9.24166 12.4001 8.625 11.7835 8.625 11.0251V8.96682C8.625 8.20848 9.24166 7.5918 9.99999 7.5918C10.7583 7.5918 11.375 8.20848 11.375 8.96682V11.0251C11.375 11.7835 10.7583 12.4001 9.99999 12.4001Z" stroke="#0F0F0F" stroke-width="1.5" stroke-linecap="round"/>
<path d="M14.1497 11.2247C13.983 13.3747 12.183 15.0581 9.99967 15.0581C7.69967 15.0581 5.83301 13.1914 5.83301 10.8914V9.10807C5.83301 6.80807 7.69967 4.94141 9.99967 4.94141C12.158 4.94141 13.933 6.58306 14.1413 8.68306" stroke="#0F0F0F" stroke-width="1.5" stroke-linecap="round"/>
</svg>
