<svg width="20" height="20" viewBox="0 0 20 20" fill="none" xmlns="http://www.w3.org/2000/svg">
<path d="M15.033 11.2923C14.683 11.634 14.483 12.1256 14.533 12.6506C14.608 13.5506 15.433 14.209 16.333 14.209H17.9163V15.2006C17.9163 16.9256 16.508 18.334 14.783 18.334H5.21634C3.49134 18.334 2.08301 16.9256 2.08301 15.2006V9.59233C2.08301 7.86733 3.49134 6.45898 5.21634 6.45898H14.783C16.508 6.45898 17.9163 7.86733 17.9163 9.59233V10.7923H16.233C15.7663 10.7923 15.3413 10.9756 15.033 11.2923Z" stroke="#0F0F0F" stroke-width="1.5" stroke-linecap="round" stroke-linejoin="round"/>
<path d="M2.08301 10.3421V6.53379C2.08301 5.54212 2.69134 4.65875 3.61634 4.30875L10.233 1.80875C11.2663 1.41708 12.3747 2.18377 12.3747 3.29211V6.45876" stroke="#0F0F0F" stroke-width="1.5" stroke-linecap="round" stroke-linejoin="round"/>
<path d="M18.7987 11.642V13.3587C18.7987 13.817 18.432 14.192 17.9653 14.2086H16.332C15.432 14.2086 14.607 13.5503 14.532 12.6503C14.482 12.1253 14.682 11.6336 15.032 11.292C15.3404 10.9753 15.7653 10.792 16.232 10.792H17.9653C18.432 10.8087 18.7987 11.1836 18.7987 11.642Z" stroke="#0F0F0F" stroke-width="1.5" stroke-linecap="round" stroke-linejoin="round"/>
<path d="M5.83301 10H11.6663" stroke="#0F0F0F" stroke-width="1.5" stroke-linecap="round" stroke-linejoin="round"/>
</svg>
