<svg width="20" height="20" viewBox="0 0 20 20" fill="none" xmlns="http://www.w3.org/2000/svg">
<g clip-path="url(#clip0_390_8685)">
<path d="M16.25 12.5C14.87 12.5 13.675 13.2575 13.0233 14.3708L7.05333 11.7367C7.32917 11.215 7.5 10.63 7.5 9.99917C7.5 9.36833 7.32917 8.78417 7.05333 8.26167L13.0233 5.6275C13.6742 6.74083 14.8692 7.49833 16.25 7.49833C18.3175 7.49833 20 5.81583 20 3.74833C20 1.68083 18.3175 0 16.25 0C14.1825 0 12.5 1.6825 12.5 3.75C12.5 4.14083 12.5767 4.51083 12.6883 4.86583L6.57583 7.5625C5.8875 6.76583 4.8825 6.25 3.75 6.25C1.6825 6.25 0 7.9325 0 10C0 12.0675 1.6825 13.75 3.75 13.75C4.88333 13.75 5.88833 13.2342 6.57583 12.4375L12.6883 15.1342C12.5767 15.4892 12.5 15.8592 12.5 16.25C12.5 18.3175 14.1825 20 16.25 20C18.3175 20 20 18.3175 20 16.25C20 14.1825 18.3175 12.5 16.25 12.5ZM16.25 0.833333C17.8583 0.833333 19.1667 2.14167 19.1667 3.75C19.1667 5.35833 17.8583 6.66667 16.25 6.66667C14.6417 6.66667 13.3333 5.35833 13.3333 3.75C13.3333 2.14167 14.6417 0.833333 16.25 0.833333ZM3.75 12.9167C2.14167 12.9167 0.833333 11.6083 0.833333 10C0.833333 8.39167 2.14167 7.08333 3.75 7.08333C5.35833 7.08333 6.66667 8.39167 6.66667 10C6.66667 11.6083 5.35833 12.9167 3.75 12.9167ZM16.25 19.1667C14.6417 19.1667 13.3333 17.8583 13.3333 16.25C13.3333 14.6417 14.6417 13.3333 16.25 13.3333C17.8583 13.3333 19.1667 14.6417 19.1667 16.25C19.1667 17.8583 17.8583 19.1667 16.25 19.1667Z" fill="#0F0F0F"/>
</g>
<defs>
<clipPath id="clip0_390_8685">
<rect width="20" height="20" fill="white"/>
</clipPath>
</defs>
</svg>
