<svg width="15" height="15" viewBox="0 0 15 15" fill="none" xmlns="http://www.w3.org/2000/svg">
<path d="M6.55586 1.39336L3.43711 2.56836C2.71836 2.83711 2.13086 3.68711 2.13086 4.44961V9.09336C2.13086 9.83086 2.61836 10.7996 3.21211 11.2434L5.89961 13.2496C6.78086 13.9121 8.23086 13.9121 9.11211 13.2496L11.7996 11.2434C12.3934 10.7996 12.8809 9.83086 12.8809 9.09336V4.44961C12.8809 3.68086 12.2934 2.83086 11.5746 2.56211L8.45586 1.39336C7.92461 1.19961 7.07461 1.19961 6.55586 1.39336Z" stroke="white" stroke-linecap="round" stroke-linejoin="round"/>
<path d="M7.5 7.8125C8.19036 7.8125 8.75 7.25286 8.75 6.5625C8.75 5.87214 8.19036 5.3125 7.5 5.3125C6.80964 5.3125 6.25 5.87214 6.25 6.5625C6.25 7.25286 6.80964 7.8125 7.5 7.8125Z" stroke="white" stroke-miterlimit="10" stroke-linecap="round" stroke-linejoin="round"/>
<path d="M7.5 7.8125V9.6875" stroke="white" stroke-miterlimit="10" stroke-linecap="round" stroke-linejoin="round"/>
</svg>
