<svg width="15" height="15" viewBox="0 0 15 15" fill="none" xmlns="http://www.w3.org/2000/svg">
<path d="M7.51213 1.81836C5.44338 1.81836 3.76213 3.49961 3.76213 5.56836V7.37461C3.76213 7.75586 3.59963 8.33711 3.40588 8.66211L2.68713 9.85586C2.24338 10.5934 2.54963 11.4121 3.36213 11.6871C6.05588 12.5871 8.96213 12.5871 11.6559 11.6871C12.4121 11.4371 12.7434 10.5434 12.3309 9.85586L11.6121 8.66211C11.4246 8.33711 11.2621 7.75586 11.2621 7.37461V5.56836C11.2621 3.50586 9.57463 1.81836 7.51213 1.81836Z" stroke="white" stroke-miterlimit="10" stroke-linecap="round"/>
<path d="M8.66895 2.00039C8.4752 1.94414 8.2752 1.90039 8.06895 1.87539C7.46895 1.80039 6.89395 1.84414 6.35645 2.00039C6.5377 1.53789 6.9877 1.21289 7.5127 1.21289C8.0377 1.21289 8.4877 1.53789 8.66895 2.00039Z" stroke="white" stroke-miterlimit="10" stroke-linecap="round" stroke-linejoin="round"/>
<path d="M9.3877 11.9121C9.3877 12.9434 8.54395 13.7871 7.5127 13.7871C7.0002 13.7871 6.52519 13.5746 6.18769 13.2371C5.85019 12.8996 5.6377 12.4246 5.6377 11.9121" stroke="white" stroke-miterlimit="10"/>
</svg>
