<svg width="230" height="40" viewBox="0 0 230 40" fill="none" xmlns="http://www.w3.org/2000/svg">
<g clip-path="url(#clip0_215_6742)">
<path d="M230 7.5C230 8.88071 229.1 10 227.989 10C226.879 10 225.979 8.88071 225.979 7.5C225.979 6.11929 226.879 5 227.989 5C229.1 5 230 6.11929 230 7.5Z" fill="white" fill-opacity="0.8"/>
<path d="M172.078 23.4326C172.149 23.0175 171.992 22.6496 171.689 22.5204L160.438 17.7165C158.92 17.0682 158.133 15.2213 158.49 13.1387C158.945 10.4782 161.09 8.32129 163.281 8.32129H177.841L177.18 12.1785H162.62C162.184 12.1785 161.757 12.6084 161.666 13.1387C161.595 13.5537 161.751 13.9216 162.054 14.0509L173.306 18.8547C174.824 19.5031 175.61 21.3499 175.254 23.4326C174.798 26.0931 172.653 28.2499 170.462 28.2499H155.903L156.563 24.3928H171.122C171.559 24.3928 171.987 23.9628 172.078 23.4326Z" fill="white" fill-opacity="0.8"/>
<path d="M137.139 8L133.7 28.0893H130.523L133.963 8H137.139Z" fill="white" fill-opacity="0.8"/>
<path d="M221.299 8C223.93 8 225.619 10.5904 225.072 13.7857L222.651 27.9286H219.475L221.896 13.7857C222.079 12.7206 221.515 11.8571 220.638 11.8571H214.816L212.065 27.9286H208.889L211.64 11.8571H204.23L201.478 27.9286H198.303L201.054 11.8571H204.23L204.89 8H221.299Z" fill="white" fill-opacity="0.8"/>
<path fill-rule="evenodd" clip-rule="evenodd" d="M84.9464 8.32129C87.5777 8.32129 89.2673 10.9117 88.7205 14.107L86.9593 24.3928H83.7835L83.1233 28.2499H70.949C68.3592 28.2499 66.6817 25.7399 67.1517 22.6136L67.1758 22.4642L68.9365 12.1785H72.1124L72.7726 8.32129H84.9464ZM70.3516 22.4642L70.3367 22.5634C70.2048 23.5824 70.7597 24.3928 71.6094 24.3928H83.7835L85.5439 14.107C85.7265 13.0419 85.1635 12.1785 84.2862 12.1785H72.1124L70.3516 22.4642Z" fill="white" fill-opacity="0.8"/>
<path fill-rule="evenodd" clip-rule="evenodd" d="M127.291 8.32129C129.923 8.32129 131.611 10.9117 131.065 14.107L129.304 24.3928H126.128L125.468 28.2499H113.294C110.704 28.2499 109.026 25.7399 109.496 22.6136L109.52 22.4642L111.281 12.1785H114.457L115.117 8.32129H127.291ZM112.696 22.4642L112.682 22.5634C112.55 23.5824 113.105 24.3928 113.954 24.3928H126.128L127.889 14.107C128.071 13.0419 127.508 12.1785 126.631 12.1785H114.457L112.696 22.4642Z" fill="white" fill-opacity="0.8"/>
<path d="M143.04 12.1785C142.163 12.1785 141.304 13.0419 141.122 14.107L137.6 34.6785H134.425L137.946 14.107C138.493 10.9117 141.069 8.32129 143.7 8.32129H154.286L153.626 12.1785H156.801L155.041 22.4642C154.494 25.6595 151.917 28.2499 149.287 28.2499H141.876L142.536 24.3928H149.947C150.824 24.3928 151.683 23.5293 151.865 22.4642L153.626 12.1785H143.04Z" fill="white" fill-opacity="0.8"/>
<path d="M92.7029 20.2145C92.5211 21.2796 93.0841 22.1431 93.9606 22.1431H101.371L100.711 26.0002H93.3004C90.6699 26.0002 88.9803 23.4098 89.5271 20.2145L90.8476 12.5002H94.0234L94.6836 8.64307H105.27C107.901 8.64307 109.59 11.2334 109.043 14.4288L106.513 29.2145C105.966 32.4098 103.389 35.0002 100.758 35.0002H90.5685L91.2296 31.1431H101.419C102.295 31.1431 103.154 30.2796 103.337 29.2145L105.868 14.4288C106.05 13.3637 105.487 12.5002 104.61 12.5002H94.0234L92.7029 20.2145Z" fill="white" fill-opacity="0.8"/>
<path d="M52.3347 22.4642L54.7558 8.32129H51.5799L49.1588 22.4642C48.6118 25.6595 50.3012 28.2499 52.9321 28.2499H64.3327L64.993 24.3928H53.5924C52.7155 24.3928 52.1524 23.5293 52.3347 22.4642Z" fill="white" fill-opacity="0.8"/>
<path d="M180.392 22.7859L180.378 22.8851C180.246 23.9041 180.801 24.7145 181.65 24.7145H193.825L196.576 8.64307H199.752L197.001 24.7145H193.825L193.165 28.5716H180.99C178.4 28.5716 176.723 26.0616 177.192 22.9353L177.217 22.7859L179.638 8.64307H182.814L180.392 22.7859Z" fill="white" fill-opacity="0.8"/>
<path fill-rule="evenodd" clip-rule="evenodd" d="M13.6713 0C14.1155 0 14.4755 0.447715 14.4755 1V8.39648C14.4755 8.61918 14.6921 8.7307 14.8188 8.57324L21.2421 0.585938C21.5437 0.210936 21.9528 7.97938e-05 22.3792 0H29.4222C29.6355 4.04019e-05 29.8401 0.105468 29.9909 0.292969L32.4035 3.29297C32.7174 3.68347 32.7174 4.31653 32.4035 4.70703L29.2943 8.57324C29.1676 8.73073 29.2573 8.99997 29.4364 9H35.8558C36.0691 9.00004 36.2737 9.10547 36.4244 9.29297L38.837 12.293C39.151 12.6835 39.151 13.3165 38.837 13.707L35.6689 17.6465C35.5119 17.8417 35.5119 18.1583 35.6689 18.3535L38.2684 21.5859C38.9966 22.4914 39.4056 23.7195 39.4056 25C39.4056 26.2805 38.9965 27.5086 38.2684 28.4141L29.4222 39.4141C29.1207 39.7891 28.7116 39.9999 28.2851 40H25.7343C25.2901 40 24.9301 39.5523 24.9301 39V31.6035C24.9301 31.3808 24.7135 31.2693 24.5868 31.4268L18.1635 39.4141C17.8619 39.7891 17.4528 39.9999 17.0264 40H9.98337C9.77009 40 9.56551 39.8945 9.41472 39.707L7.00216 36.707C6.68818 36.3165 6.68818 35.6835 7.00216 35.293L10.1113 31.4268C10.238 31.2693 10.1483 31 9.96921 31H3.54977C3.33653 31 3.13196 30.8945 2.98118 30.707L0.568591 27.707C0.254613 27.3165 0.254614 26.6835 0.568591 26.293L3.73668 22.3535C3.89368 22.1583 3.89368 21.8417 3.73668 21.6465L1.13718 18.4141C0.409056 17.5086 0 16.2805 0 15C0 13.7195 0.409055 12.4914 1.13718 11.5859L9.98337 0.585938C10.2849 0.210936 10.694 8.00463e-05 11.1205 0H13.6713ZM16.1413 9C15.0748 9 14.0516 9.52716 13.2975 10.4648L4.70738 21.1465C4.45413 21.4615 4.63349 21.9999 4.99167 22H16.7216C17.0798 22.0001 17.2591 22.5386 17.0059 22.8535L11.1409 30.1465C10.8877 30.4615 11.067 30.9999 11.4252 31H23.2643C24.3308 31 25.354 30.4728 26.1081 29.5352L34.6982 18.8535C34.9356 18.5583 34.7929 18.0663 34.4791 18.0059L34.414 18H22.684C22.3258 18 22.1464 17.4615 22.3997 17.1465L28.2647 9.85352C28.5179 9.53855 28.3386 9.00006 27.9804 9H16.1413Z" fill="white" fill-opacity="0.8"/>
</g>
<defs>
<clipPath id="clip0_215_6742">
<rect width="230" height="40" fill="white"/>
</clipPath>
</defs>
</svg>
