<svg width="230" height="40" viewBox="0 0 230 40" fill="none" xmlns="http://www.w3.org/2000/svg">
<g clip-path="url(#clip0_215_6754)">
<path d="M17.7381 39.9998H16.3787C12.8473 39.9998 10.7227 39.9992 9.09973 39.7157L18.4925 28.0342L17.7381 39.9998Z" fill="white" fill-opacity="0.8"/>
<path d="M33.2735 39.7513C31.6784 39.9987 29.5885 39.9999 26.2139 39.9999H24.6068L23.8486 28.0308L33.2735 39.7513Z" fill="white" fill-opacity="0.8"/>
<path d="M42.2428 31.6707C42.1742 31.9772 42.0935 32.2654 41.9951 32.5425C41.3507 34.3566 40.2193 35.9521 38.7451 37.1981L28.1537 26.0439L42.2428 31.6707Z" fill="white" fill-opacity="0.8"/>
<path d="M3.71129 37.0793C2.30417 35.8512 1.2217 34.3001 0.59739 32.5427C0.489281 32.2383 0.399519 31.9211 0.327026 31.5804L14.1874 26.0459L3.71129 37.0793Z" fill="white" fill-opacity="0.8"/>
<path d="M42.5926 24.6182C42.5926 25.7427 42.5892 26.7153 42.5775 27.5691L29.9989 23.0059H42.5926V24.6182Z" fill="white" fill-opacity="0.8"/>
<path d="M12.3478 23.0059L0.0113439 27.4804C0.000751872 26.648 0 25.7039 0 24.6182V23.0059H12.3478Z" fill="white" fill-opacity="0.8"/>
<path d="M26.2139 0C30.6461 0 32.8623 0.000553668 34.6518 0.56108C38.1181 1.64713 40.8387 4.20208 41.9951 7.45739C42.592 9.13798 42.5926 11.2193 42.5926 15.3817V20.016H29.2919L38.885 16.1861L36.0396 14.4123L26.732 17.7876L31.1012 12.358L27.9589 11.5501L23.1341 16.6282L22.7748 10.9091H19.574L19.209 16.6282L14.3879 11.5501L11.2475 12.358L15.6111 17.7859L6.3091 14.4123L3.46367 16.1861L13.0549 20.016H0V15.3817C0 11.2193 0.000589553 9.13798 0.597446 7.45739C1.75389 4.20208 4.47444 1.64713 7.94074 0.56108C9.73026 0.000553668 11.9465 0 16.3787 0H26.2139Z" fill="white" fill-opacity="0.8"/>
<path d="M99.3189 31.4434C100.32 33.206 102.252 34.3154 104.743 34.3154C107.233 34.3154 109.166 33.206 110.167 31.4434H113.913C112.674 34.9653 109.233 37.3193 104.743 37.3193C100.253 37.3193 96.8111 34.9653 95.5723 31.4434H99.3189ZM153.869 12.7598C159.576 12.7598 163.575 16.4467 163.575 21.7383C163.575 27.3371 159.14 30.5127 154.45 30.5127C151.542 30.5126 149.071 29.2833 147.762 27.0986V37.2715H144.308V21.7725C144.308 16.2761 148.307 12.7598 153.869 12.7598ZM153.905 15.7637C150.234 15.7637 147.762 18.222 147.762 21.6357C147.762 25.0496 150.234 27.5078 153.905 27.5078C157.613 27.5078 160.085 25.0497 160.085 21.6357C160.085 18.2219 157.613 15.7637 153.905 15.7637ZM84.1828 12.7598C89.8535 12.7598 93.8522 16.515 93.8523 21.6357C93.8523 26.7566 89.8536 30.5127 84.1828 30.5127C78.5119 30.5127 74.5131 26.7566 74.5131 21.6357C74.5133 16.515 78.512 12.7598 84.1828 12.7598ZM84.1828 15.7637C80.475 15.7637 78.003 18.2219 78.0029 21.6357C78.0029 25.0497 80.4749 27.5078 84.1828 27.5078C87.8907 27.5078 90.3626 25.0497 90.3626 21.6357C90.3625 18.2219 87.8906 15.7637 84.1828 15.7637ZM105.126 12.7676H114.519V15.668H112.095C113.562 17.2132 114.411 19.2791 114.411 21.6357C114.411 26.7566 110.413 30.5127 104.742 30.5127C99.0709 30.5127 95.0722 26.7566 95.0722 21.6357C95.0723 16.515 99.071 12.7598 104.742 12.7598C104.871 12.7598 104.999 12.7637 105.126 12.7676ZM104.742 15.7637C101.034 15.7637 98.562 18.2219 98.5619 21.6357C98.5619 25.0497 101.034 27.5078 104.742 27.5078C108.449 27.5078 110.922 25.0497 110.922 21.6357C110.922 18.2219 108.449 15.7637 104.742 15.7637ZM125.302 12.7598C130.972 12.7598 134.972 16.515 134.972 21.6357C134.972 26.7566 130.972 30.5127 125.302 30.5127C119.631 30.5127 115.632 26.7566 115.632 21.6357C115.632 16.515 119.631 12.7598 125.302 12.7598ZM125.302 15.7637C121.594 15.7637 119.122 18.2219 119.122 21.6357C119.122 25.0497 121.594 27.5078 125.302 27.5078C129.01 27.5078 131.482 25.0497 131.482 21.6357C131.481 18.2219 129.01 15.7637 125.302 15.7637ZM172.304 12.7598C176.594 12.7599 179.248 15.0475 179.32 17.9492H175.902C175.793 16.652 174.522 15.6955 172.341 15.6953C170.051 15.6953 168.742 16.7203 168.742 18.0518C168.742 19.6559 170.632 19.8265 172.849 20.0996C175.976 20.4751 179.792 21.0215 179.793 24.8789C179.793 28.2927 176.849 30.5125 172.341 30.5127C167.833 30.5127 164.997 28.259 164.889 25.1865H168.378C168.451 26.5862 169.833 27.5762 172.341 27.5762C174.958 27.576 176.302 26.5179 176.302 25.1865C176.302 23.582 174.412 23.3766 172.159 23.1035C169.033 22.728 165.252 22.182 165.252 18.3242C165.252 15.0128 168.015 12.7598 172.304 12.7598ZM185.26 22.0107C185.26 25.6636 187.405 27.5078 190.676 27.5078C193.949 27.5078 196.093 25.6636 196.093 22.0107V13.2031H199.546V22.0107C199.546 27.6096 195.984 30.5117 190.676 30.5117C185.369 30.5117 181.806 27.6437 181.806 22.0107V13.2031H185.26V22.0107ZM60.1433 26.8594H73.4847V30.0684H56.4352V7.74121H60.1433V26.8594ZM141.026 30.0684H137.573V13.2031H141.026V30.0684ZM222.291 12.7598C226.507 12.7598 229.707 15.1496 229.707 20.3047V30.0684H226.253V20.3047C226.253 17.164 224.473 15.7638 221.964 15.7637C219.529 15.7637 217.71 17.2321 217.71 20.3047V30.0684H214.257V20.3047C214.257 17.2321 212.403 15.7637 209.968 15.7637C207.459 15.7637 205.678 17.1639 205.678 20.3047V30.0684H202.224V20.3047C202.224 15.1496 205.424 12.7598 209.641 12.7598C212.403 12.7599 214.729 13.9207 215.965 16.1055C217.201 13.9206 219.491 12.7598 222.291 12.7598ZM139.282 6C140.663 6 141.682 6.95577 141.682 8.25293C141.682 9.55023 140.663 10.541 139.282 10.541C137.901 10.5409 136.883 9.55014 136.883 8.25293C136.883 6.95586 137.901 6.00013 139.282 6Z" fill="white" fill-opacity="0.8"/>
</g>
<defs>
<clipPath id="clip0_215_6754">
<rect width="230" height="40" fill="white"/>
</clipPath>
</defs>
</svg>
